Asphalt-Black.ufo
<glyph name="exclam" format="1">
  <advance width="450"/>
  <unicode hex="0021"/>
  <outline>
    <contour>
      <point x="434" y="725" type="line"/>
      <point x="383" y="266" type="line"/>
      <point x="34" y="279" type="line"/>
      <point x="14" y="711" type="line"/>
    </contour>
    <contour>
      <point x="425" y="-13" type="line"/>
      <point x="25" y="4" type="line"/>
      <point x="43" y="225" type="line"/>
      <point x="412" y="241" type="line"/>
    </contour>
  </outline>
</glyph>
<glyph name="quotedbl" format="1">
  <advance width="738"/>
  <unicode hex="0022"/>
  <outline>
    <contour>
      <point x="351" y="737" type="line"/>
      <point x="312" y="310" type="line"/>
      <point x="49" y="340" type="line"/>
      <point x="4" y="708" type="line"/>
    </contour>
    <contour>
      <point x="732" y="693" type="line"/>
      <point x="666" y="360" type="line"/>
      <point x="388" y="331" type="line"/>
      <point x="364" y="712" type="line"/>
    </contour>
  </outline>
</glyph>
<glyph name="numbersign" format="1">
  <advance width="882"/>
  <unicode hex="0023"/>
  <outline>
    <contour>
      <point x="877" y="560" type="line"/>
      <point x="815" y="365" type="line"/>
      <point x="726" y="373" type="line"/>
      <point x="710" y="295" type="line"/>
      <point x="818" y="283" type="line"/>
      <point x="784" y="106" type="line"/>
      <point x="670" y="116" type="line"/>
      <point x="647" y="15" type="line"/>
      <point x="370" y="-1" type="line"/>
      <point x="394" y="141" type="line"/>
      <point x="353" y="145" type="line"/>
      <point x="333" y="-15" type="line"/>
      <point x="73" y="39" type="line"/>
      <point x="88" y="169" type="line"/>
      <point x="30" y="175" type="line"/>
      <point x="18" y="378" type="line"/>
      <point x="111" y="367" type="line"/>
      <point x="118" y="428" type="line"/>
      <point x="4" y="439" type="line"/>
      <point x="48" y="599" type="line"/>
      <point x="137" y="595" type="line"/>
      <point x="150" y="716" type="line"/>
      <point x="424" y="733" type="line"/>
      <point x="406" y="582" type="line"/>
      <point x="467" y="580" type="line"/>
      <point x="493" y="736" type="line"/>
      <point x="804" y="722" type="line"/>
      <point x="769" y="565" type="line"/>
    </contour>
    <contour>
      <point x="450" y="414" type="line"/>
      <point x="376" y="421" type="line"/>
      <point x="361" y="317" type="line"/>
      <point x="434" y="310" type="line"/>
    </contour>
  </outline>
</glyph>
<glyph name="dollar" format="1">
  <advance width="788"/>
  <unicode hex="0024"/>
  <outline>
    <contour>
      <point x="785" y="683" type="curve"/>
      <point x="739" y="439" type="line"/>
      <point x="641" y="466"/>
      <point x="520" y="484"/>
      <point x="432" y="484" type="curve" smooth="yes"/>
      <point x="380" y="484"/>
      <point x="370" y="481"/>
      <point x="370" y="469" type="curve" smooth="yes"/>
      <point x="370" y="457"/>
      <point x="376" y="454"/>
      <point x="469" y="439" type="curve" smooth="yes"/>
      <point x="737" y="394"/>
      <point x="768" y="365"/>
      <point x="768" y="219" type="curve" smooth="yes"/>
      <point x="768" y="68"/>
      <point x="718" y="11"/>
      <point x="514" y="-4" type="curve"/>
      <point x="499" y="-95" type="line"/>
      <point x="229" y="-79" type="line"/>
      <point x="235" y="-1" type="line"/>
      <point x="145" y="7"/>
      <point x="57" y="22"/>
      <point x="-2" y="42" type="curve"/>
      <point x="17" y="265" type="line"/>
      <point x="118" y="230"/>
      <point x="268" y="200"/>
      <point x="372" y="200" type="curve" smooth="yes"/>
      <point x="394" y="200"/>
      <point x="400" y="205"/>
      <point x="400" y="216" type="curve" smooth="yes"/>
      <point x="400" y="230"/>
      <point x="390" y="233"/>
      <point x="341" y="240" type="curve" smooth="yes"/>
      <point x="52" y="284"/>
      <point x="7" y="322"/>
      <point x="7" y="493" type="curve" smooth="yes"/>
      <point x="7" y="657"/>
      <point x="66" y="709"/>
      <point x="277" y="721" type="curve"/>
      <point x="290" y="834" type="line"/>
      <point x="550" y="802" type="line"/>
      <point x="552" y="720" type="line"/>
      <point x="647" y="714"/>
      <point x="716" y="701"/>
    </contour>
  </outline>
</glyph>
<glyph name="percent" format="1">
  <advance width="918"/>
  <unicode hex="0025"/>
  <outline>
    <contour>
      <point x="911" y="212" type="curve" smooth="yes"/>
      <point x="911" y="22"/>
      <point x="858" y="-11"/>
      <point x="591" y="-11" type="curve" smooth="yes"/>
      <point x="416" y="-11"/>
      <point x="360" y="20"/>
      <point x="345" y="124" type="curve"/>
      <point x="140" y="-12" type="line"/>
      <point x="14" y="100" type="line"/>
      <point x="198" y="247" type="line"/>
      <point x="32" y="256"/>
      <point x="7" y="311"/>
      <point x="7" y="475" type="curve" smooth="yes"/>
      <point x="7" y="695"/>
      <point x="55" y="725"/>
      <point x="328" y="725" type="curve" smooth="yes"/>
      <point x="486" y="725"/>
      <point x="557" y="689"/>
      <point x="574" y="548" type="curve"/>
      <point x="738" y="719" type="line"/>
      <point x="905" y="611" type="line"/>
      <point x="751" y="463" type="line"/>
      <point x="867" y="445"/>
      <point x="911" y="382"/>
    </contour>
    <contour>
      <point x="314" y="513" type="curve" smooth="yes"/>
      <point x="314" y="567"/>
      <point x="310" y="579"/>
      <point x="295" y="579" type="curve" smooth="yes"/>
      <point x="277" y="579"/>
      <point x="274" y="567"/>
      <point x="274" y="480" type="curve" smooth="yes"/>
      <point x="274" y="409"/>
      <point x="277" y="390"/>
      <point x="292" y="390" type="curve" smooth="yes"/>
      <point x="308" y="390"/>
      <point x="314" y="400"/>
    </contour>
    <contour>
      <point x="646" y="257" type="curve" smooth="yes"/>
      <point x="646" y="311"/>
      <point x="643" y="323"/>
      <point x="627" y="323" type="curve" smooth="yes"/>
      <point x="609" y="323"/>
      <point x="607" y="311"/>
      <point x="607" y="224" type="curve" smooth="yes"/>
      <point x="607" y="154"/>
      <point x="609" y="134"/>
      <point x="625" y="134" type="curve" smooth="yes"/>
      <point x="640" y="134"/>
      <point x="646" y="144"/>
    </contour>
  </outline>
</glyph>
<glyph name="ampersand" format="1">
  <advance width="840"/>
  <unicode hex="0026"/>
  <outline>
    <contour>
      <point x="851" y="52" type="line"/>
      <point x="576" y="-16" type="line"/>
      <point x="515" y="60" type="line"/>
      <point x="448" y="23"/>
      <point x="352" y="-5"/>
      <point x="257" y="-5" type="curve" smooth="yes"/>
      <point x="61" y="-5"/>
      <point x="3" y="40"/>
      <point x="3" y="180" type="curve" smooth="yes"/>
      <point x="3" y="270"/>
      <point x="57" y="338"/>
      <point x="147" y="391" type="curve"/>
      <point x="98" y="440"/>
      <point x="75" y="485"/>
      <point x="75" y="562" type="curve" smooth="yes"/>
      <point x="75" y="679"/>
      <point x="163" y="724"/>
      <point x="426" y="724" type="curve" smooth="yes"/>
      <point x="603" y="724"/>
      <point x="685" y="715"/>
      <point x="785" y="697" type="curve"/>
      <point x="761" y="470" type="line"/>
      <point x="694" y="484"/>
      <point x="607" y="495"/>
      <point x="555" y="495" type="curve" smooth="yes"/>
      <point x="482" y="495"/>
      <point x="471" y="488"/>
      <point x="471" y="467" type="curve" smooth="yes"/>
      <point x="471" y="448"/>
      <point x="486" y="431"/>
      <point x="560" y="370" type="curve"/>
      <point x="668" y="451" type="line"/>
      <point x="837" y="252" type="line"/>
      <point x="729" y="187" type="line"/>
    </contour>
    <contour>
      <point x="387" y="214" type="curve"/>
      <point x="315" y="272" type="line"/>
      <point x="288" y="256"/>
      <point x="275" y="240"/>
      <point x="275" y="216" type="curve" smooth="yes"/>
      <point x="275" y="194"/>
      <point x="291" y="184"/>
      <point x="316" y="184" type="curve" smooth="yes"/>
      <point x="340" y="184"/>
      <point x="367" y="194"/>
    </contour>
  </outline>
</glyph>
<glyph name="quotesingle" format="1">
  <advance width="369"/>
  <unicode hex="0027"/>
  <outline>
    <contour>
      <point x="353" y="729" type="line"/>
      <point x="326" y="349" type="line"/>
      <point x="40" y="325" type="line"/>
      <point x="5" y="715" type="line"/>
    </contour>
  </outline>
</glyph>
<glyph name="parenleft" format="1">
  <advance width="468"/>
  <unicode hex="0028"/>
  <outline>
    <contour>
      <point x="463" y="701" type="line"/>
      <point x="400" y="549"/>
      <point x="379" y="441"/>
      <point x="379" y="316" type="curve" smooth="yes"/>
      <point x="379" y="184"/>
      <point x="396" y="94"/>
      <point x="424" y="3" type="curve"/>
      <point x="80" y="-34" type="line"/>
      <point x="38" y="50"/>
      <point x="9" y="155"/>
      <point x="9" y="273" type="curve" smooth="yes"/>
      <point x="9" y="463"/>
      <point x="33" y="578"/>
      <point x="133" y="734" type="curve"/>
    </contour>
  </outline>
</glyph>
<glyph name="parenright" format="1">
  <advance width="468"/>
  <unicode hex="0029"/>
  <outline>
    <contour>
      <point x="463" y="400" type="curve" smooth="yes"/>
      <point x="463" y="222"/>
      <point x="421" y="99"/>
      <point x="349" y="-17" type="curve"/>
      <point x="-6" y="10" type="line"/>
      <point x="52" y="109"/>
      <point x="93" y="205"/>
      <point x="93" y="359" type="curve" smooth="yes"/>
      <point x="93" y="503"/>
      <point x="65" y="572"/>
      <point x="11" y="691" type="curve"/>
      <point x="369" y="729" type="line"/>
      <point x="436" y="624"/>
      <point x="463" y="514"/>
    </contour>
  </outline>
</glyph>
<glyph name="asterisk" format="1">
  <advance width="639"/>
  <unicode hex="002A"/>
  <outline>
    <contour>
      <point x="632" y="454" type="line"/>
      <point x="489" y="373" type="line"/>
      <point x="572" y="239" type="line"/>
      <point x="448" y="140" type="line"/>
      <point x="247" y="269" type="line"/>
      <point x="82" y="206" type="line"/>
      <point x="7" y="321" type="line"/>
      <point x="121" y="422" type="line"/>
      <point x="30" y="534" type="line"/>
      <point x="112" y="641" type="line"/>
      <point x="229" y="579" type="line"/>
      <point x="248" y="717" type="line"/>
      <point x="402" y="750" type="line"/>
      <point x="461" y="604" type="line"/>
      <point x="594" y="607" type="line"/>
    </contour>
  </outline>
</glyph>
<glyph name="plus" format="1">
  <advance width="633"/>
  <unicode hex="002B"/>
  <outline>
    <contour>
      <point x="629" y="469" type="line"/>
      <point x="606" y="233" type="line"/>
      <point x="450" y="221" type="line"/>
      <point x="447" y="57" type="line"/>
      <point x="150" y="81" type="line"/>
      <point x="175" y="242" type="line"/>
      <point x="4" y="267" type="line"/>
      <point x="18" y="501" type="line"/>
      <point x="166" y="494" type="line"/>
      <point x="161" y="650" type="line"/>
      <point x="448" y="655" type="line"/>
      <point x="441" y="470" type="line"/>
    </contour>
  </outline>
</glyph>
<glyph name="comma" format="1">
  <advance width="409"/>
  <unicode hex="002C"/>
  <outline>
    <contour>
      <point x="398" y="241" type="line"/>
      <point x="331" y="-72" type="line"/>
      <point x="7" y="-85" type="line"/>
      <point x="31" y="272" type="line"/>
    </contour>
  </outline>
</glyph>
<glyph name="hyphen" format="1">
  <advance width="427"/>
  <unicode hex="002D"/>
  <unicode hex="2010"/>
  <unicode hex="2011"/>
  <outline>
    <contour>
      <point x="417" y="443" type="line"/>
      <point x="406" y="184" type="line"/>
      <point x="10" y="200" type="line"/>
      <point x="21" y="473" type="line"/>
    </contour>
  </outline>
</glyph>
<glyph name="period" format="1">
  <advance width="409"/>
  <unicode hex="002E"/>
  <outline>
    <contour>
      <point x="396" y="-11" type="line"/>
      <point x="18" y="-7" type="line"/>
      <point x="13" y="265" type="line"/>
      <point x="392" y="281" type="line"/>
    </contour>
  </outline>
</glyph>
<glyph name="slash" format="1">
  <advance width="522"/>
  <unicode hex="002F"/>
  <outline>
    <contour>
      <point x="522" y="707" type="line"/>
      <point x="331" y="-13" type="line"/>
      <point x="0" y="4" type="line"/>
      <point x="139" y="725" type="line"/>
    </contour>
  </outline>
</glyph>
<glyph name="zero" format="1">
  <advance width="900"/>
  <unicode hex="0030"/>
  <outline>
    <contour>
      <point x="891" y="356" type="curve" smooth="yes"/>
      <point x="891" y="58"/>
      <point x="805" y="-13"/>
      <point x="466" y="-13" type="curve" smooth="yes"/>
      <point x="80" y="-13"/>
      <point x="9" y="83"/>
      <point x="9" y="306" type="curve" smooth="yes"/>
      <point x="9" y="697"/>
      <point x="112" y="727"/>
      <point x="400" y="727" type="curve" smooth="yes"/>
      <point x="818" y="727"/>
      <point x="891" y="652"/>
    </contour>
    <contour>
      <point x="482" y="365" type="curve" smooth="yes"/>
      <point x="482" y="502"/>
      <point x="482" y="515"/>
      <point x="450" y="515" type="curve" smooth="yes"/>
      <point x="420" y="515"/>
      <point x="418" y="502"/>
      <point x="418" y="353" type="curve" smooth="yes"/>
      <point x="418" y="225"/>
      <point x="426" y="223"/>
      <point x="445" y="223" type="curve" smooth="yes"/>
      <point x="473" y="223"/>
      <point x="482" y="228"/>
    </contour>
  </outline>
</glyph>
<glyph name="one" format="1">
  <advance width="622"/>
  <unicode hex="0031"/>
  <outline>
    <contour>
      <point x="606" y="713" type="line"/>
      <point x="580" y="7" type="line"/>
      <point x="183" y="11" type="line"/>
      <point x="175" y="445" type="line"/>
      <point x="31" y="419" type="line"/>
      <point x="4" y="673" type="line"/>
      <point x="197" y="718" type="line"/>
    </contour>
  </outline>
</glyph>
<glyph name="two" format="1">
  <advance width="801"/>
  <unicode hex="0032"/>
  <outline>
    <contour>
      <point x="792" y="243" type="line"/>
      <point x="768" y="-14" type="line"/>
      <point x="37" y="14" type="line"/>
      <point x="32" y="236" type="line"/>
      <point x="250" y="316"/>
      <point x="304" y="346"/>
      <point x="304" y="406" type="curve" smooth="yes"/>
      <point x="304" y="445"/>
      <point x="276" y="460"/>
      <point x="198" y="460" type="curve" smooth="yes"/>
      <point x="143" y="460"/>
      <point x="81" y="452"/>
      <point x="26" y="441" type="curve"/>
      <point x="5" y="684" type="line"/>
      <point x="135" y="714"/>
      <point x="309" y="727"/>
      <point x="436" y="727" type="curve" smooth="yes"/>
      <point x="647" y="727"/>
      <point x="790" y="706"/>
      <point x="790" y="571" type="curve" smooth="yes"/>
      <point x="790" y="412"/>
      <point x="715" y="338"/>
      <point x="548" y="252" type="curve"/>
    </contour>
  </outline>
</glyph>
<glyph name="three" format="1">
  <advance width="783"/>
  <unicode hex="0033"/>
  <outline>
    <contour>
      <point x="769" y="704" type="line"/>
      <point x="747" y="481" type="line"/>
      <point x="494" y="371" type="line"/>
      <point x="724" y="360"/>
      <point x="767" y="328"/>
      <point x="767" y="187" type="curve" smooth="yes"/>
      <point x="767" y="26"/>
      <point x="681" y="-9"/>
      <point x="377" y="-9" type="curve" smooth="yes"/>
      <point x="249" y="-9"/>
      <point x="121" y="4"/>
      <point x="14" y="22" type="curve"/>
      <point x="37" y="231" type="line"/>
      <point x="122" y="220"/>
      <point x="192" y="214"/>
      <point x="260" y="214" type="curve" smooth="yes"/>
      <point x="312" y="214"/>
      <point x="346" y="216"/>
      <point x="346" y="249" type="curve" smooth="yes"/>
      <point x="346" y="271"/>
      <point x="302" y="277"/>
      <point x="215" y="277" type="curve" smooth="yes"/>
      <point x="176" y="277"/>
      <point x="154" y="276"/>
      <point x="113" y="272" type="curve"/>
      <point x="74" y="416" type="line"/>
      <point x="310" y="511" type="line"/>
      <point x="7" y="506" type="line"/>
      <point x="21" y="720" type="line"/>
    </contour>
  </outline>
</glyph>
<glyph name="four" format="1">
  <advance width="841"/>
  <unicode hex="0034"/>
  <outline>
    <contour>
      <point x="835" y="310" type="line"/>
      <point x="830" y="93" type="line"/>
      <point x="717" y="98" type="line"/>
      <point x="710" y="1" type="line"/>
      <point x="420" y="-12" type="line"/>
      <point x="414" y="121" type="line"/>
      <point x="31" y="130" type="line"/>
      <point x="5" y="317" type="line"/>
      <point x="275" y="721" type="line"/>
      <point x="744" y="715" type="line"/>
      <point x="733" y="318" type="line"/>
    </contour>
    <contour>
      <point x="452" y="507" type="line"/>
      <point x="360" y="337" type="line"/>
      <point x="445" y="332" type="line"/>
    </contour>
  </outline>
</glyph>
<glyph name="five" format="1">
  <advance width="792"/>
  <unicode hex="0035"/>
  <outline>
    <contour>
      <point x="775" y="261" type="curve" smooth="yes"/>
      <point x="775" y="37"/>
      <point x="709" y="-9"/>
      <point x="431" y="-9" type="curve" smooth="yes"/>
      <point x="314" y="-9"/>
      <point x="125" y="4"/>
      <point x="24" y="27" type="curve"/>
      <point x="36" y="242" type="line"/>
      <point x="133" y="224"/>
      <point x="232" y="213"/>
      <point x="298" y="213" type="curve" smooth="yes"/>
      <point x="409" y="213"/>
      <point x="419" y="216"/>
      <point x="419" y="245" type="curve" smooth="yes"/>
      <point x="419" y="271"/>
      <point x="391" y="274"/>
      <point x="27" y="288" type="curve"/>
      <point x="4" y="709" type="line"/>
      <point x="766" y="731" type="line"/>
      <point x="764" y="484" type="line"/>
      <point x="373" y="509" type="line"/>
      <point x="371" y="472" type="line"/>
      <point x="742" y="434"/>
      <point x="775" y="422"/>
    </contour>
  </outline>
</glyph>
<glyph name="six" format="1">
  <advance width="819"/>
  <unicode hex="0036"/>
  <outline>
    <contour>
      <point x="811" y="225" type="curve" smooth="yes"/>
      <point x="811" y="32"/>
      <point x="707" y="-9"/>
      <point x="391" y="-9" type="curve" smooth="yes"/>
      <point x="65" y="-9"/>
      <point x="13" y="57"/>
      <point x="13" y="346" type="curve" smooth="yes"/>
      <point x="13" y="644"/>
      <point x="139" y="725"/>
      <point x="412" y="725" type="curve" smooth="yes"/>
      <point x="570" y="725"/>
      <point x="689" y="715"/>
      <point x="778" y="698" type="curve"/>
      <point x="761" y="491" type="line"/>
      <point x="692" y="500"/>
      <point x="616" y="504"/>
      <point x="566" y="504" type="curve" smooth="yes"/>
      <point x="408" y="504"/>
      <point x="391" y="479"/>
      <point x="387" y="432" type="curve"/>
      <point x="432" y="446"/>
      <point x="482" y="454"/>
      <point x="551" y="454" type="curve" smooth="yes"/>
      <point x="765" y="454"/>
      <point x="811" y="423"/>
    </contour>
    <contour>
      <point x="445" y="207" type="curve" smooth="yes"/>
      <point x="445" y="272"/>
      <point x="444" y="293"/>
      <point x="423" y="293" type="curve" smooth="yes"/>
      <point x="389" y="293"/>
      <point x="387" y="276"/>
      <point x="387" y="213" type="curve" smooth="yes"/>
      <point x="387" y="165"/>
      <point x="391" y="151"/>
      <point x="416" y="151" type="curve" smooth="yes"/>
      <point x="438" y="151"/>
      <point x="445" y="163"/>
    </contour>
  </outline>
</glyph>
<glyph name="seven" format="1">
  <advance width="756"/>
  <unicode hex="0037"/>
  <outline>
    <contour>
      <point x="747" y="455" type="line"/>
      <point x="468" y="-9" type="line"/>
      <point x="99" y="22" type="line"/>
      <point x="299" y="430" type="line"/>
      <point x="4" y="450" type="line"/>
      <point x="18" y="722" type="line"/>
      <point x="729" y="709" type="line"/>
    </contour>
  </outline>
</glyph>
<glyph name="eight" format="1">
  <advance width="810"/>
  <unicode hex="0038"/>
  <outline>
    <contour>
      <point x="806" y="166" type="curve" smooth="yes"/>
      <point x="806" y="17"/>
      <point x="717" y="-13"/>
      <point x="383" y="-13" type="curve" smooth="yes"/>
      <point x="98" y="-13"/>
      <point x="6" y="24"/>
      <point x="6" y="179" type="curve" smooth="yes"/>
      <point x="6" y="283"/>
      <point x="35" y="324"/>
      <point x="112" y="364" type="curve"/>
      <point x="50" y="402"/>
      <point x="24" y="444"/>
      <point x="24" y="545" type="curve" smooth="yes"/>
      <point x="24" y="689"/>
      <point x="105" y="727"/>
      <point x="452" y="727" type="curve" smooth="yes"/>
      <point x="748" y="727"/>
      <point x="799" y="678"/>
      <point x="799" y="529" type="curve" smooth="yes"/>
      <point x="799" y="411"/>
      <point x="776" y="381"/>
      <point x="695" y="346" type="curve"/>
      <point x="776" y="310"/>
      <point x="806" y="261"/>
    </contour>
    <contour>
      <point x="453" y="499" type="curve" smooth="yes"/>
      <point x="453" y="551"/>
      <point x="448" y="560"/>
      <point x="431" y="560" type="curve" smooth="yes"/>
      <point x="396" y="560"/>
      <point x="395" y="555"/>
      <point x="395" y="502" type="curve" smooth="yes"/>
      <point x="395" y="446"/>
      <point x="398" y="434"/>
      <point x="424" y="434" type="curve" smooth="yes"/>
      <point x="448" y="434"/>
      <point x="453" y="449"/>
    </contour>
    <contour>
      <point x="442" y="209" type="curve" smooth="yes"/>
      <point x="442" y="262"/>
      <point x="439" y="271"/>
      <point x="420" y="271" type="curve" smooth="yes"/>
      <point x="391" y="271"/>
      <point x="387" y="263"/>
      <point x="387" y="201" type="curve" smooth="yes"/>
      <point x="387" y="158"/>
      <point x="391" y="149"/>
      <point x="409" y="149" type="curve" smooth="yes"/>
      <point x="436" y="149"/>
      <point x="442" y="157"/>
    </contour>
  </outline>
</glyph>
<glyph name="nine" format="1">
  <advance width="819"/>
  <unicode hex="0039"/>
  <outline>
    <contour>
      <point x="806" y="396" type="curve" smooth="yes"/>
      <point x="806" y="50"/>
      <point x="702" y="-9"/>
      <point x="399" y="-9" type="curve" smooth="yes"/>
      <point x="279" y="-9"/>
      <point x="165" y="-5"/>
      <point x="17" y="22" type="curve"/>
      <point x="38" y="236" type="line"/>
      <point x="153" y="212"/>
      <point x="254" y="200"/>
      <point x="317" y="200" type="curve" smooth="yes"/>
      <point x="420" y="200"/>
      <point x="445" y="212"/>
      <point x="445" y="271" type="curve"/>
      <point x="398" y="256"/>
      <point x="344" y="251"/>
      <point x="261" y="251" type="curve" smooth="yes"/>
      <point x="85" y="251"/>
      <point x="8" y="305"/>
      <point x="8" y="500" type="curve" smooth="yes"/>
      <point x="8" y="661"/>
      <point x="92" y="727"/>
      <point x="400" y="727" type="curve" smooth="yes"/>
      <point x="733" y="727"/>
      <point x="806" y="679"/>
    </contour>
    <contour>
      <point x="448" y="477" type="curve" smooth="yes"/>
      <point x="448" y="543"/>
      <point x="445" y="551"/>
      <point x="421" y="551" type="curve" smooth="yes"/>
      <point x="386" y="551"/>
      <point x="385" y="541"/>
      <point x="385" y="468" type="curve" smooth="yes"/>
      <point x="385" y="423"/>
      <point x="386" y="405"/>
      <point x="418" y="405" type="curve" smooth="yes"/>
      <point x="442" y="405"/>
      <point x="448" y="410"/>
    </contour>
  </outline>
</glyph>
<glyph name="colon" format="1">
  <advance width="409"/>
  <unicode hex="003A"/>
  <outline>
    <contour>
      <point x="386" y="311" type="line"/>
      <point x="30" y="306" type="line"/>
      <point x="31" y="589" type="line"/>
      <point x="384" y="607" type="line"/>
    </contour>
    <contour>
      <point x="384" y="256" type="line"/>
      <point x="377" y="-9" type="line"/>
      <point x="13" y="-4" type="line"/>
      <point x="30" y="278" type="line"/>
    </contour>
  </outline>
</glyph>
<glyph name="semicolon" format="1">
  <advance width="409"/>
  <unicode hex="003B"/>
  <outline>
    <contour>
      <point x="389" y="306" type="line"/>
      <point x="39" y="293" type="line"/>
      <point x="24" y="574" type="line"/>
      <point x="372" y="607" type="line"/>
    </contour>
    <contour>
      <point x="392" y="257" type="line"/>
      <point x="355" y="-34" type="line"/>
      <point x="31" y="-67" type="line"/>
      <point x="21" y="265" type="line"/>
    </contour>
  </outline>
</glyph>
<glyph name="less" format="1">
  <advance width="589"/>
  <unicode hex="003C"/>
  <outline>
    <contour>
      <point x="581" y="647" type="line"/>
      <point x="398" y="370" type="line"/>
      <point x="556" y="51" type="line"/>
      <point x="202" y="73" type="line"/>
      <point x="4" y="337" type="line"/>
      <point x="190" y="625" type="line"/>
    </contour>
  </outline>
</glyph>
<glyph name="equal" format="1">
  <advance width="657"/>
  <unicode hex="003D"/>
  <outline>
    <contour>
      <point x="637" y="594" type="line"/>
      <point x="598" y="362" type="line"/>
      <point x="5" y="384" type="line"/>
      <point x="37" y="599" type="line"/>
    </contour>
    <contour>
      <point x="648" y="336" type="line"/>
      <point x="637" y="102" type="line"/>
      <point x="36" y="126" type="line"/>
      <point x="23" y="327" type="line"/>
    </contour>
  </outline>
</glyph>
<glyph name="greater" format="1">
  <advance width="589"/>
  <unicode hex="003E"/>
  <outline>
    <contour>
      <point x="585" y="360" type="line"/>
      <point x="382" y="58" type="line"/>
      <point x="8" y="72" type="line"/>
      <point x="195" y="387" type="line"/>
      <point x="9" y="596" type="line"/>
      <point x="383" y="629" type="line"/>
    </contour>
  </outline>
</glyph>
<glyph name="question" format="1">
  <advance width="648"/>
  <unicode hex="003F"/>
  <outline>
    <contour>
      <point x="644" y="575" type="curve" smooth="yes"/>
      <point x="644" y="445"/>
      <point x="570" y="340"/>
      <point x="490" y="243" type="curve"/>
      <point x="119" y="253" type="line"/>
      <point x="174" y="326"/>
      <point x="202" y="368"/>
      <point x="202" y="430" type="curve" smooth="yes"/>
      <point x="202" y="478"/>
      <point x="175" y="498"/>
      <point x="123" y="498" type="curve" smooth="yes"/>
      <point x="92" y="498"/>
      <point x="52" y="496"/>
      <point x="23" y="492" type="curve"/>
      <point x="3" y="706" type="line"/>
      <point x="77" y="717"/>
      <point x="218" y="726"/>
      <point x="343" y="726" type="curve" smooth="yes"/>
      <point x="589" y="726"/>
      <point x="644" y="687"/>
    </contour>
    <contour>
      <point x="502" y="-4" type="line"/>
      <point x="121" y="13" type="line"/>
      <point x="125" y="205" type="line"/>
      <point x="501" y="213" type="line"/>
    </contour>
  </outline>
</glyph>
<glyph name="at" format="1">
  <advance width="900"/>
  <unicode hex="0040"/>
  <outline>
    <contour>
      <point x="893" y="227" type="line"/>
      <point x="623" y="189" type="line"/>
      <point x="607" y="221" type="line"/>
      <point x="540" y="195"/>
      <point x="494" y="182"/>
      <point x="418" y="182" type="curve" smooth="yes"/>
      <point x="293" y="182"/>
      <point x="245" y="223"/>
      <point x="245" y="316" type="curve" smooth="yes"/>
      <point x="245" y="456"/>
      <point x="296" y="507"/>
      <point x="467" y="505" type="curve" smooth="yes"/>
      <point x="580" y="504" type="line"/>
      <point x="580" y="543"/>
      <point x="570" y="563"/>
      <point x="466" y="563" type="curve" smooth="yes"/>
      <point x="243" y="563"/>
      <point x="183" y="498"/>
      <point x="183" y="327" type="curve" smooth="yes"/>
      <point x="183" y="159"/>
      <point x="249" y="114"/>
      <point x="506" y="114" type="curve" smooth="yes"/>
      <point x="620" y="114"/>
      <point x="740" y="133"/>
      <point x="845" y="170" type="curve"/>
      <point x="877" y="56" type="line"/>
      <point x="775" y="12"/>
      <point x="654" y="-12"/>
      <point x="458" y="-12" type="curve" smooth="yes"/>
      <point x="151" y="-12"/>
      <point x="9" y="45"/>
      <point x="9" y="321" type="curve" smooth="yes"/>
      <point x="9" y="629"/>
      <point x="145" y="726"/>
      <point x="462" y="726" type="curve" smooth="yes"/>
      <point x="790" y="726"/>
      <point x="868" y="681"/>
      <point x="876" y="533" type="curve" smooth="yes"/>
    </contour>
    <contour>
      <point x="592" y="347" type="curve"/>
      <point x="586" y="394" type="line"/>
      <point x="463" y="393"/>
      <point x="447" y="379"/>
      <point x="447" y="345" type="curve" smooth="yes"/>
      <point x="447" y="327"/>
      <point x="458" y="318"/>
      <point x="491" y="318" type="curve" smooth="yes"/>
      <point x="518" y="318"/>
      <point x="556" y="326"/>
    </contour>
  </outline>
</glyph>
<glyph name="A" format="1">
  <advance width="864"/>
  <unicode hex="0041"/>
  <outline>
    <contour>
      <point x="863" y="0" type="line"/>
      <point x="494" y="-30" type="line"/>
      <point x="478" y="74" type="line"/>
      <point x="362" y="64" type="line"/>
      <point x="350" y="-3" type="line"/>
      <point x="1" y="12" type="line"/>
      <point x="149" y="727" type="line"/>
      <point x="661" y="711" type="line"/>
    </contour>
    <contour>
      <point x="455" y="221" type="line"/>
      <point x="426" y="411" type="line"/>
      <point x="390" y="213" type="line"/>
    </contour>
  </outline>
</glyph>
<glyph name="B" format="1">
  <advance width="810"/>
  <unicode hex="0042"/>
  <outline>
    <contour>
      <point x="805" y="184" type="curve" smooth="yes"/>
      <point x="805" y="22"/>
      <point x="698" y="-12"/>
      <point x="537" y="-7" type="curve" smooth="yes"/>
      <point x="15" y="8" type="line"/>
      <point x="26" y="713" type="line"/>
      <point x="501" y="724" type="line" smooth="yes"/>
      <point x="716" y="729"/>
      <point x="803" y="682"/>
      <point x="803" y="539" type="curve" smooth="yes"/>
      <point x="803" y="424"/>
      <point x="777" y="378"/>
      <point x="723" y="346" type="curve"/>
      <point x="784" y="311"/>
      <point x="805" y="275"/>
    </contour>
    <contour>
      <point x="447" y="485" type="curve" smooth="yes"/>
      <point x="447" y="552"/>
      <point x="427" y="562"/>
      <point x="384" y="547" type="curve"/>
      <point x="390" y="421" type="line"/>
      <point x="427" y="427"/>
      <point x="447" y="442"/>
    </contour>
    <contour>
      <point x="450" y="220" type="curve" smooth="yes"/>
      <point x="450" y="260"/>
      <point x="443" y="272"/>
      <point x="391" y="270" type="curve"/>
      <point x="377" y="158" type="line"/>
      <point x="432" y="149"/>
      <point x="450" y="166"/>
    </contour>
  </outline>
</glyph>
<glyph name="C" format="1">
  <advance width="774"/>
  <unicode hex="0043"/>
  <outline>
    <contour>
      <point x="769" y="686" type="curve"/>
      <point x="732" y="403" type="line"/>
      <point x="649" y="429"/>
      <point x="598" y="437"/>
      <point x="526" y="437" type="curve" smooth="yes"/>
      <point x="454" y="437"/>
      <point x="435" y="411"/>
      <point x="435" y="347" type="curve" smooth="yes"/>
      <point x="435" y="280"/>
      <point x="461" y="252"/>
      <point x="567" y="252" type="curve" smooth="yes"/>
      <point x="631" y="252"/>
      <point x="666" y="257"/>
      <point x="720" y="266" type="curve"/>
      <point x="758" y="23" type="line"/>
      <point x="657" y="2"/>
      <point x="581" y="-11"/>
      <point x="418" y="-11" type="curve" smooth="yes"/>
      <point x="61" y="-11"/>
      <point x="9" y="101"/>
      <point x="9" y="371" type="curve" smooth="yes"/>
      <point x="9" y="640"/>
      <point x="73" y="727"/>
      <point x="411" y="727" type="curve" smooth="yes"/>
      <point x="572" y="727"/>
      <point x="661" y="715"/>
    </contour>
  </outline>
</glyph>
<glyph name="D" format="1">
  <advance width="900"/>
  <unicode hex="0044"/>
  <outline>
    <contour>
      <point x="891" y="398" type="curve" smooth="yes"/>
      <point x="891" y="81"/>
      <point x="767" y="-14"/>
      <point x="488" y="-7" type="curve" smooth="yes"/>
      <point x="23" y="4" type="line"/>
      <point x="16" y="716" type="line"/>
      <point x="608" y="725" type="line" smooth="yes"/>
      <point x="777" y="728"/>
      <point x="891" y="699"/>
    </contour>
    <contour>
      <point x="484" y="371" type="curve" smooth="yes"/>
      <point x="484" y="457"/>
      <point x="476" y="481"/>
      <point x="421" y="481" type="curve"/>
      <point x="425" y="221" type="line"/>
      <point x="474" y="225"/>
      <point x="484" y="247"/>
    </contour>
  </outline>
</glyph>
<glyph name="E" format="1">
  <advance width="742"/>
  <unicode hex="0045"/>
  <outline>
    <contour>
      <point x="730" y="506" type="line"/>
      <point x="386" y="498" type="line"/>
      <point x="393" y="445" type="line"/>
      <point x="664" y="470" type="line"/>
      <point x="679" y="283" type="line"/>
      <point x="412" y="267" type="line"/>
      <point x="409" y="234" type="line"/>
      <point x="712" y="225" type="line"/>
      <point x="710" y="-7" type="line"/>
      <point x="22" y="6" type="line"/>
      <point x="13" y="711" type="line"/>
      <point x="720" y="725" type="line"/>
    </contour>
  </outline>
</glyph>
<glyph name="F" format="1">
  <advance width="756"/>
  <unicode hex="0046"/>
  <outline>
    <contour>
      <point x="737" y="710" type="line"/>
      <point x="724" y="487" type="line"/>
      <point x="406" y="464" type="line"/>
      <point x="402" y="390" type="line"/>
      <point x="671" y="400" type="line"/>
      <point x="680" y="176" type="line"/>
      <point x="421" y="191" type="line"/>
      <point x="410" y="-3" type="line"/>
      <point x="22" y="6" type="line"/>
      <point x="28" y="728" type="line"/>
    </contour>
  </outline>
</glyph>
<glyph name="G" format="1">
  <advance width="855"/>
  <unicode hex="0047"/>
  <outline>
    <contour>
      <point x="842" y="690" type="curve"/>
      <point x="804" y="436" type="line"/>
      <point x="698" y="456"/>
      <point x="606" y="463"/>
      <point x="550" y="463" type="curve" smooth="yes"/>
      <point x="436" y="463"/>
      <point x="418" y="436"/>
      <point x="418" y="353" type="curve" smooth="yes"/>
      <point x="418" y="234"/>
      <point x="427" y="201"/>
      <point x="484" y="201" type="curve"/>
      <point x="471" y="379" type="line"/>
      <point x="835" y="405" type="line"/>
      <point x="827" y="41" type="line"/>
      <point x="668" y="8"/>
      <point x="522" y="-9"/>
      <point x="368" y="-9" type="curve" smooth="yes"/>
      <point x="120" y="-9"/>
      <point x="10" y="132"/>
      <point x="10" y="391" type="curve" smooth="yes"/>
      <point x="10" y="669"/>
      <point x="82" y="731"/>
      <point x="481" y="731" type="curve" smooth="yes"/>
      <point x="590" y="731"/>
      <point x="711" y="719"/>
    </contour>
  </outline>
</glyph>
<glyph name="H" format="1">
  <advance width="891"/>
  <unicode hex="0048"/>
  <outline>
    <contour>
      <point x="878" y="710" type="line"/>
      <point x="857" y="-2" type="line"/>
      <point x="459" y="22" type="line"/>
      <point x="472" y="197" type="line"/>
      <point x="419" y="191" type="line"/>
      <point x="413" y="3" type="line"/>
      <point x="31" y="-5" type="line"/>
      <point x="11" y="721" type="line"/>
      <point x="438" y="727" type="line"/>
      <point x="430" y="428" type="line"/>
      <point x="473" y="424" type="line"/>
      <point x="490" y="719" type="line"/>
    </contour>
  </outline>
</glyph>
<glyph name="I" format="1">
  <advance width="450"/>
  <unicode hex="0049"/>
  <outline>
    <contour>
      <point x="436" y="705" type="line"/>
      <point x="410" y="-6" type="line"/>
      <point x="25" y="7" type="line"/>
      <point x="14" y="730" type="line"/>
    </contour>
  </outline>
</glyph>
<glyph name="J" format="1">
  <advance width="592"/>
  <unicode hex="004A"/>
  <outline>
    <contour>
      <point x="578" y="728" type="line"/>
      <point x="556" y="182" type="line" smooth="yes"/>
      <point x="551" y="51"/>
      <point x="456" y="-7"/>
      <point x="263" y="-7" type="curve" smooth="yes"/>
      <point x="152" y="-7"/>
      <point x="78" y="1"/>
      <point x="-2" y="20" type="curve"/>
      <point x="11" y="280" type="line"/>
      <point x="31" y="275"/>
      <point x="58" y="273"/>
      <point x="76" y="273" type="curve" smooth="yes"/>
      <point x="135" y="273"/>
      <point x="158" y="285"/>
      <point x="157" y="354" type="curve" smooth="yes"/>
      <point x="151" y="718" type="line"/>
    </contour>
  </outline>
</glyph>
<glyph name="K" format="1">
  <advance width="918"/>
  <unicode hex="004B"/>
  <outline>
    <contour>
      <point x="914" y="704" type="line"/>
      <point x="756" y="483" type="line"/>
      <point x="909" y="9" type="line"/>
      <point x="518" y="-13" type="line"/>
      <point x="470" y="156" type="line"/>
      <point x="431" y="118" type="line"/>
      <point x="434" y="5" type="line"/>
      <point x="22" y="-13" type="line"/>
      <point x="16" y="720" type="line"/>
      <point x="423" y="725" type="line"/>
      <point x="426" y="503" type="line"/>
      <point x="538" y="724" type="line"/>
    </contour>
  </outline>
</glyph>
<glyph name="L" format="1">
  <advance width="711"/>
  <unicode hex="004C"/>
  <outline>
    <contour>
      <point x="705" y="299" type="line"/>
      <point x="674" y="-8" type="line"/>
      <point x="18" y="5" type="line"/>
      <point x="22" y="724" type="line"/>
      <point x="430" y="733" type="line"/>
      <point x="437" y="286" type="line"/>
    </contour>
  </outline>
</glyph>
<glyph name="M" format="1">
  <advance width="1113"/>
  <unicode hex="004D"/>
  <outline>
    <contour>
      <point x="1102" y="677" type="line"/>
      <point x="1086" y="-9" type="line"/>
      <point x="756" y="3" type="line"/>
      <point x="728" y="291" type="line"/>
      <point x="670" y="11" type="line"/>
      <point x="463" y="-13" type="line"/>
      <point x="360" y="367" type="line"/>
      <point x="387" y="7" type="line"/>
      <point x="18" y="4" type="line"/>
      <point x="13" y="706" type="line"/>
      <point x="488" y="719" type="line"/>
      <point x="586" y="448" type="line"/>
      <point x="644" y="729" type="line"/>
    </contour>
  </outline>
</glyph>
<glyph name="N" format="1">
  <advance width="909"/>
  <unicode hex="004E"/>
  <outline>
    <contour>
      <point x="886" y="19" type="line"/>
      <point x="494" y="-7" type="line"/>
      <point x="400" y="206" type="line"/>
      <point x="406" y="7" type="line"/>
      <point x="24" y="7" type="line"/>
      <point x="14" y="707" type="line"/>
      <point x="442" y="724" type="line"/>
      <point x="544" y="473" type="line"/>
      <point x="535" y="703" type="line"/>
      <point x="883" y="723" type="line"/>
    </contour>
  </outline>
</glyph>
<glyph name="O" format="1">
  <advance width="900"/>
  <unicode hex="004F"/>
  <outline>
    <contour>
      <point x="889" y="331" type="curve" smooth="yes"/>
      <point x="889" y="37"/>
      <point x="807" y="-13"/>
      <point x="398" y="-13" type="curve" smooth="yes"/>
      <point x="58" y="-13"/>
      <point x="9" y="62"/>
      <point x="9" y="341" type="curve" smooth="yes"/>
      <point x="9" y="679"/>
      <point x="83" y="727"/>
      <point x="503" y="727" type="curve" smooth="yes"/>
      <point x="787" y="727"/>
      <point x="889" y="650"/>
    </contour>
    <contour>
      <point x="482" y="400" type="curve" smooth="yes"/>
      <point x="482" y="483"/>
      <point x="477" y="500"/>
      <point x="453" y="500" type="curve" smooth="yes"/>
      <point x="425" y="500"/>
      <point x="420" y="482"/>
      <point x="420" y="349" type="curve" smooth="yes"/>
      <point x="420" y="240"/>
      <point x="426" y="211"/>
      <point x="449" y="211" type="curve" smooth="yes"/>
      <point x="472" y="211"/>
      <point x="482" y="225"/>
    </contour>
  </outline>
</glyph>
<glyph name="P" format="1">
  <advance width="868"/>
  <unicode hex="0050"/>
  <outline>
    <contour>
      <point x="851" y="472" type="curve" smooth="yes"/>
      <point x="851" y="261"/>
      <point x="770" y="196"/>
      <point x="414" y="169" type="curve"/>
      <point x="421" y="9" type="line"/>
      <point x="31" y="-5" type="line"/>
      <point x="16" y="716" type="line"/>
      <point x="578" y="725" type="line" smooth="yes"/>
      <point x="786" y="728"/>
      <point x="851" y="698"/>
    </contour>
    <contour>
      <point x="495" y="468" type="curve" smooth="yes"/>
      <point x="495" y="519"/>
      <point x="469" y="524"/>
      <point x="421" y="513" type="curve"/>
      <point x="428" y="362" type="line"/>
      <point x="476" y="368"/>
      <point x="495" y="392"/>
    </contour>
  </outline>
</glyph>
<glyph name="Q" format="1">
  <advance width="900"/>
  <unicode hex="0051"/>
  <outline>
    <contour>
      <point x="891" y="431" type="curve" smooth="yes"/>
      <point x="891" y="188"/>
      <point x="851" y="73"/>
      <point x="713" y="22" type="curve"/>
      <point x="758" y="-65" type="line"/>
      <point x="445" y="-108" type="line"/>
      <point x="376" y="-4" type="line"/>
      <point x="51" y="15"/>
      <point x="11" y="108"/>
      <point x="11" y="277" type="curve" smooth="yes"/>
      <point x="11" y="597"/>
      <point x="51" y="724"/>
      <point x="358" y="724" type="curve" smooth="yes"/>
      <point x="751" y="724"/>
      <point x="891" y="692"/>
    </contour>
    <contour>
      <point x="479" y="311" type="curve" smooth="yes"/>
      <point x="479" y="497"/>
      <point x="468" y="500"/>
      <point x="445" y="500" type="curve" smooth="yes"/>
      <point x="422" y="500"/>
      <point x="417" y="490"/>
      <point x="417" y="362" type="curve" smooth="yes"/>
      <point x="417" y="229"/>
      <point x="421" y="211"/>
      <point x="449" y="211" type="curve" smooth="yes"/>
      <point x="473" y="211"/>
      <point x="479" y="228"/>
    </contour>
  </outline>
</glyph>
<glyph name="R" format="1">
  <advance width="900"/>
  <unicode hex="0052"/>
  <outline>
    <contour>
      <point x="913" y="22" type="line"/>
      <point x="487" y="-7" type="line"/>
      <point x="420" y="196" type="line"/>
      <point x="412" y="-16" type="line"/>
      <point x="19" y="1" type="line"/>
      <point x="20" y="708" type="line"/>
      <point x="576" y="713" type="line" smooth="yes"/>
      <point x="816" y="715"/>
      <point x="866" y="645"/>
      <point x="866" y="491" type="curve" smooth="yes"/>
      <point x="866" y="415"/>
      <point x="839" y="359"/>
      <point x="774" y="299" type="curve"/>
    </contour>
    <contour>
      <point x="479" y="465" type="curve" smooth="yes"/>
      <point x="479" y="505"/>
      <point x="453" y="517"/>
      <point x="418" y="522" type="curve"/>
      <point x="420" y="384" type="line"/>
      <point x="453" y="391"/>
      <point x="479" y="404"/>
    </contour>
  </outline>
</glyph>
<glyph name="S" format="1">
  <advance width="788"/>
  <unicode hex="0053"/>
  <outline>
    <contour>
      <point x="787" y="683" type="curve"/>
      <point x="741" y="439" type="line"/>
      <point x="643" y="466"/>
      <point x="522" y="484"/>
      <point x="434" y="484" type="curve" smooth="yes"/>
      <point x="382" y="484"/>
      <point x="372" y="481"/>
      <point x="372" y="469" type="curve" smooth="yes"/>
      <point x="372" y="457"/>
      <point x="378" y="454"/>
      <point x="471" y="439" type="curve" smooth="yes"/>
      <point x="739" y="394"/>
      <point x="770" y="365"/>
      <point x="770" y="219" type="curve" smooth="yes"/>
      <point x="770" y="40"/>
      <point x="699" y="-8"/>
      <point x="383" y="-8" type="curve" smooth="yes"/>
      <point x="257" y="-8"/>
      <point x="93" y="10"/>
      <point x="0" y="42" type="curve"/>
      <point x="19" y="265" type="line"/>
      <point x="120" y="230"/>
      <point x="270" y="200"/>
      <point x="374" y="200" type="curve" smooth="yes"/>
      <point x="396" y="200"/>
      <point x="402" y="205"/>
      <point x="402" y="216" type="curve" smooth="yes"/>
      <point x="402" y="230"/>
      <point x="392" y="233"/>
      <point x="343" y="240" type="curve" smooth="yes"/>
      <point x="54" y="284"/>
      <point x="9" y="322"/>
      <point x="9" y="493" type="curve" smooth="yes"/>
      <point x="9" y="688"/>
      <point x="93" y="724"/>
      <point x="412" y="724" type="curve" smooth="yes"/>
      <point x="586" y="724"/>
      <point x="687" y="709"/>
    </contour>
  </outline>
</glyph>
<glyph name="T" format="1">
  <advance width="783"/>
  <unicode hex="0054"/>
  <outline>
    <contour>
      <point x="769" y="711" type="line"/>
      <point x="765" y="438" type="line"/>
      <point x="587" y="448" type="line"/>
      <point x="590" y="-8" type="line"/>
      <point x="166" y="13" type="line"/>
      <point x="193" y="443" type="line"/>
      <point x="5" y="461" type="line"/>
      <point x="13" y="725" type="line"/>
    </contour>
  </outline>
</glyph>
<glyph name="U" format="1">
  <advance width="900"/>
  <unicode hex="0055"/>
  <outline>
    <contour>
      <point x="883" y="303" type="line" smooth="yes"/>
      <point x="888" y="56"/>
      <point x="742" y="-6"/>
      <point x="479" y="-6" type="curve" smooth="yes"/>
      <point x="58" y="-6"/>
      <point x="9" y="33"/>
      <point x="13" y="230" type="curve" smooth="yes"/>
      <point x="23" y="728" type="line"/>
      <point x="437" y="698" type="line"/>
      <point x="427" y="266" type="line" smooth="yes"/>
      <point x="426" y="231"/>
      <point x="432" y="219"/>
      <point x="452" y="219" type="curve" smooth="yes"/>
      <point x="472" y="219"/>
      <point x="479" y="229"/>
      <point x="479" y="268" type="curve" smooth="yes"/>
      <point x="475" y="714" type="line"/>
      <point x="875" y="725" type="line"/>
    </contour>
  </outline>
</glyph>
<glyph name="V" format="1">
  <advance width="864"/>
  <unicode hex="0056"/>
  <outline>
    <contour>
      <point x="863" y="695" type="line"/>
      <point x="696" y="3" type="line"/>
      <point x="190" y="-9" type="line"/>
      <point x="1" y="715" type="line"/>
      <point x="379" y="736" type="line"/>
      <point x="456" y="270" type="line"/>
      <point x="525" y="726" type="line"/>
    </contour>
  </outline>
</glyph>
<glyph name="W" format="1">
  <advance width="1249"/>
  <unicode hex="0057"/>
  <outline>
    <contour>
      <point x="1248" y="670" type="line"/>
      <point x="1099" y="-9" type="line"/>
      <point x="663" y="4" type="line"/>
      <point x="611" y="256" type="line"/>
      <point x="517" y="15" type="line"/>
      <point x="98" y="-12" type="line"/>
      <point x="1" y="709" type="line"/>
      <point x="372" y="731" type="line"/>
      <point x="411" y="356" type="line"/>
      <point x="474" y="709" type="line"/>
      <point x="786" y="718" type="line"/>
      <point x="822" y="328" type="line"/>
      <point x="919" y="734" type="line"/>
    </contour>
  </outline>
</glyph>
<glyph name="X" format="1">
  <advance width="890"/>
  <unicode hex="0058"/>
  <outline>
    <contour>
      <point x="894" y="27" type="line"/>
      <point x="505" y="-7" type="line"/>
      <point x="436" y="166" type="line"/>
      <point x="354" y="-7" type="line"/>
      <point x="-6" y="18" type="line"/>
      <point x="148" y="378" type="line"/>
      <point x="-10" y="688" type="line"/>
      <point x="393" y="727" type="line"/>
      <point x="445" y="536" type="line"/>
      <point x="539" y="727" type="line"/>
      <point x="888" y="700" type="line"/>
      <point x="751" y="371" type="line"/>
    </contour>
  </outline>
</glyph>
<glyph name="Y" format="1">
  <advance width="906"/>
  <unicode hex="0059"/>
  <outline>
    <contour>
      <point x="920" y="695" type="line"/>
      <point x="647" y="283" type="line"/>
      <point x="629" y="-23" type="line"/>
      <point x="212" y="20" type="line"/>
      <point x="239" y="238" type="line"/>
      <point x="-14" y="671" type="line"/>
      <point x="352" y="733" type="line"/>
      <point x="458" y="535" type="line"/>
      <point x="550" y="725" type="line"/>
    </contour>
  </outline>
</glyph>
<glyph name="Z" format="1">
  <advance width="801"/>
  <unicode hex="005A"/>
  <outline>
    <contour>
      <point x="792" y="481" type="line"/>
      <point x="482" y="250" type="line"/>
      <point x="768" y="268" type="line"/>
      <point x="785" y="9" type="line"/>
      <point x="48" y="-9" type="line"/>
      <point x="12" y="225" type="line"/>
      <point x="295" y="486" type="line"/>
      <point x="12" y="470" type="line"/>
      <point x="19" y="725" type="line"/>
      <point x="781" y="702" type="line"/>
    </contour>
  </outline>
</glyph>
<glyph name="bracketleft" format="1">
  <advance width="504"/>
  <unicode hex="005B"/>
  <outline>
    <contour>
      <point x="499" y="169" type="line"/>
      <point x="477" y="-34" type="line"/>
      <point x="24" y="0" type="line"/>
      <point x="20" y="702" type="line"/>
      <point x="474" y="731" type="line"/>
      <point x="487" y="529" type="line"/>
      <point x="347" y="508" type="line"/>
      <point x="341" y="178" type="line"/>
    </contour>
  </outline>
</glyph>
<glyph name="backslash" format="1">
  <advance width="522"/>
  <unicode hex="005C"/>
  <outline>
    <contour>
      <point x="522" y="-16" type="line"/>
      <point x="175" y="8" type="line"/>
      <point x="0" y="662" type="line"/>
      <point x="364" y="734" type="line"/>
    </contour>
  </outline>
</glyph>
<glyph name="bracketright" format="1">
  <advance width="504"/>
  <unicode hex="005D"/>
  <outline>
    <contour>
      <point x="484" y="-9" type="line"/>
      <point x="5" y="11" type="line"/>
      <point x="22" y="198" type="line"/>
      <point x="163" y="194" type="line"/>
      <point x="150" y="512" type="line"/>
      <point x="13" y="517" type="line"/>
      <point x="5" y="706" type="line"/>
      <point x="479" y="724" type="line"/>
    </contour>
  </outline>
</glyph>
<glyph name="asciicircum" format="1">
  <advance width="675"/>
  <unicode hex="005E"/>
  <outline>
    <contour>
      <point x="655" y="76" type="line"/>
      <point x="351" y="259" type="line"/>
      <point x="5" y="101" type="line"/>
      <point x="27" y="454" type="line"/>
      <point x="319" y="652" type="line"/>
      <point x="634" y="467" type="line"/>
    </contour>
  </outline>
</glyph>
<glyph name="underscore" format="1">
  <advance width="540"/>
  <unicode hex="005F"/>
  <outline>
    <contour>
      <point x="540" y="-162" type="line"/>
      <point x="0" y="-162" type="line"/>
      <point x="0" y="-27" type="line"/>
      <point x="540" y="-27" type="line"/>
    </contour>
  </outline>
</glyph>
<glyph name="grave" format="1">
  <advance width="540"/>
  <unicode hex="0060"/>
  <outline>
    <contour>
      <point x="477" y="695" type="line"/>
      <point x="421" y="569" type="line"/>
      <point x="74" y="625" type="line"/>
      <point x="137" y="828" type="line"/>
    </contour>
  </outline>
</glyph>
<glyph name="a" format="1">
  <advance width="725"/>
  <unicode hex="0061"/>
  <outline>
    <contour>
      <point x="713" y="389" type="curve" smooth="yes"/>
      <point x="701" y="13" type="line"/>
      <point x="408" y="-22" type="line"/>
      <point x="404" y="33" type="line"/>
      <point x="333" y="5"/>
      <point x="256" y="-13"/>
      <point x="171" y="-13" type="curve" smooth="yes"/>
      <point x="52" y="-13"/>
      <point x="3" y="23"/>
      <point x="3" y="128" type="curve" smooth="yes"/>
      <point x="3" y="266"/>
      <point x="96" y="322"/>
      <point x="399" y="322" type="curve"/>
      <point x="401" y="345"/>
      <point x="387" y="355"/>
      <point x="344" y="355" type="curve" smooth="yes"/>
      <point x="242" y="355"/>
      <point x="180" y="344"/>
      <point x="93" y="324" type="curve"/>
      <point x="53" y="508" type="line"/>
      <point x="146" y="534"/>
      <point x="243" y="551"/>
      <point x="381" y="551" type="curve" smooth="yes"/>
      <point x="622" y="551"/>
      <point x="718" y="531"/>
    </contour>
    <contour>
      <point x="403" y="171" type="curve"/>
      <point x="399" y="201" type="line"/>
      <point x="306" y="201"/>
      <point x="288" y="188"/>
      <point x="288" y="167" type="curve" smooth="yes"/>
      <point x="288" y="157"/>
      <point x="297" y="151"/>
      <point x="321" y="151" type="curve" smooth="yes"/>
      <point x="344" y="151"/>
      <point x="378" y="157"/>
    </contour>
  </outline>
</glyph>
<glyph name="c" format="1">
  <advance width="671"/>
  <unicode hex="0063"/>
  <outline>
    <contour>
      <point x="669" y="521" type="curve"/>
      <point x="635" y="306" type="line"/>
      <point x="563" y="327"/>
      <point x="518" y="332"/>
      <point x="456" y="332" type="curve" smooth="yes"/>
      <point x="393" y="332"/>
      <point x="377" y="312"/>
      <point x="377" y="264" type="curve" smooth="yes"/>
      <point x="377" y="212"/>
      <point x="400" y="192"/>
      <point x="492" y="192" type="curve" smooth="yes"/>
      <point x="547" y="192"/>
      <point x="577" y="195"/>
      <point x="625" y="202" type="curve"/>
      <point x="659" y="18" type="line"/>
      <point x="571" y="2"/>
      <point x="505" y="-8"/>
      <point x="363" y="-8" type="curve" smooth="yes"/>
      <point x="52" y="-8"/>
      <point x="7" y="76"/>
      <point x="7" y="282" type="curve" smooth="yes"/>
      <point x="7" y="486"/>
      <point x="62" y="553"/>
      <point x="356" y="553" type="curve" smooth="yes"/>
      <point x="496" y="553"/>
      <point x="574" y="544"/>
    </contour>
  </outline>
</glyph>
<glyph name="d" format="1">
  <advance width="810"/>
  <unicode hex="0064"/>
  <outline>
    <contour>
      <point x="798" y="734" type="line"/>
      <point x="778" y="18" type="line"/>
      <point x="432" y="-14" type="line"/>
      <point x="434" y="49" type="line"/>
      <point x="374" y="13"/>
      <point x="310" y="-2"/>
      <point x="209" y="-2" type="curve" smooth="yes"/>
      <point x="56" y="-2"/>
      <point x="5" y="62"/>
      <point x="5" y="257" type="curve" smooth="yes"/>
      <point x="5" y="492"/>
      <point x="73" y="554"/>
      <point x="227" y="554" type="curve" smooth="yes"/>
      <point x="340" y="554"/>
      <point x="390" y="540"/>
      <point x="446" y="515" type="curve"/>
      <point x="432" y="698" type="line"/>
    </contour>
    <contour>
      <point x="434" y="257" type="curve" smooth="yes"/>
      <point x="434" y="329"/>
      <point x="432" y="347"/>
      <point x="405" y="347" type="curve" smooth="yes"/>
      <point x="388" y="347"/>
      <point x="382" y="328"/>
      <point x="382" y="290" type="curve" smooth="yes"/>
      <point x="382" y="210"/>
      <point x="388" y="186"/>
      <point x="411" y="186" type="curve" smooth="yes"/>
      <point x="426" y="186"/>
      <point x="434" y="207"/>
    </contour>
  </outline>
</glyph>
<glyph name="e" format="1">
  <advance width="712"/>
  <unicode hex="0065"/>
  <outline>
    <contour>
      <point x="705" y="36" type="line"/>
      <point x="588" y="5"/>
      <point x="478" y="-5"/>
      <point x="328" y="-5" type="curve" smooth="yes"/>
      <point x="78" y="-5"/>
      <point x="7" y="35"/>
      <point x="7" y="245" type="curve" smooth="yes"/>
      <point x="7" y="502"/>
      <point x="89" y="551"/>
      <point x="400" y="551" type="curve" smooth="yes"/>
      <point x="619" y="551"/>
      <point x="689" y="479"/>
      <point x="698" y="327" type="curve" smooth="yes"/>
      <point x="703" y="238" type="line"/>
      <point x="342" y="187" type="line"/>
      <point x="358" y="172"/>
      <point x="387" y="167"/>
      <point x="437" y="167" type="curve" smooth="yes"/>
      <point x="503" y="167"/>
      <point x="593" y="176"/>
      <point x="681" y="195" type="curve"/>
    </contour>
    <contour>
      <point x="392" y="313" type="line"/>
      <point x="387" y="369"/>
      <point x="384" y="383"/>
      <point x="357" y="383" type="curve" smooth="yes"/>
      <point x="329" y="383"/>
      <point x="324" y="369"/>
      <point x="323" y="301" type="curve"/>
    </contour>
  </outline>
</glyph>
<glyph name="f" format="1">
  <advance width="657"/>
  <unicode hex="0066"/>
  <outline>
    <contour>
      <point x="669" y="698" type="curve"/>
      <point x="658" y="459" type="line"/>
      <point x="602" y="473"/>
      <point x="560" y="479"/>
      <point x="498" y="479" type="curve" smooth="yes"/>
      <point x="449" y="479"/>
      <point x="431" y="461"/>
      <point x="433" y="423" type="curve" smooth="yes"/>
      <point x="434" y="404" type="line"/>
      <point x="634" y="398" type="line"/>
      <point x="638" y="139" type="line"/>
      <point x="461" y="158" type="line"/>
      <point x="467" y="5" type="line"/>
      <point x="107" y="-13" type="line"/>
      <point x="99" y="196" type="line"/>
      <point x="6" y="193" type="line"/>
      <point x="12" y="389" type="line"/>
      <point x="91" y="385" type="line"/>
      <point x="87" y="468" type="line" smooth="yes"/>
      <point x="78" y="662"/>
      <point x="154" y="729"/>
      <point x="406" y="729" type="curve" smooth="yes"/>
      <point x="521" y="729"/>
      <point x="590" y="720"/>
    </contour>
  </outline>
</glyph>
<glyph name="g" format="1">
  <advance width="810"/>
  <unicode hex="0067"/>
  <outline>
    <contour>
      <point x="801" y="564" type="line"/>
      <point x="792" y="130" type="line" smooth="yes"/>
      <point x="788" y="-65"/>
      <point x="740" y="-91"/>
      <point x="279" y="-133" type="curve"/>
      <point x="215" y="25" type="line"/>
      <point x="439" y="50"/>
      <point x="460" y="58"/>
      <point x="464" y="99" type="curve"/>
      <point x="418" y="77"/>
      <point x="342" y="65"/>
      <point x="257" y="65" type="curve" smooth="yes"/>
      <point x="74" y="65"/>
      <point x="7" y="106"/>
      <point x="7" y="291" type="curve" smooth="yes"/>
      <point x="7" y="484"/>
      <point x="59" y="553"/>
      <point x="241" y="553" type="curve" smooth="yes"/>
      <point x="337" y="553"/>
      <point x="403" y="537"/>
      <point x="464" y="504" type="curve"/>
      <point x="458" y="548" type="line"/>
    </contour>
    <contour>
      <point x="436" y="287" type="curve" smooth="yes"/>
      <point x="436" y="348"/>
      <point x="427" y="362"/>
      <point x="410" y="362" type="curve" smooth="yes"/>
      <point x="384" y="362"/>
      <point x="383" y="338"/>
      <point x="383" y="293" type="curve" smooth="yes"/>
      <point x="383" y="242"/>
      <point x="387" y="221"/>
      <point x="411" y="221" type="curve" smooth="yes"/>
      <point x="432" y="221"/>
      <point x="436" y="237"/>
    </contour>
  </outline>
</glyph>
<glyph name="h" format="1">
  <advance width="828"/>
  <unicode hex="0068"/>
  <outline>
    <contour>
      <point x="815" y="361" type="curve" smooth="yes"/>
      <point x="794" y="-2" type="line"/>
      <point x="444" y="22" type="line"/>
      <point x="450" y="262" type="line" smooth="yes"/>
      <point x="451" y="303"/>
      <point x="439" y="317"/>
      <point x="414" y="317" type="curve"/>
      <point x="408" y="-6" type="line"/>
      <point x="31" y="-14" type="line"/>
      <point x="11" y="721" type="line"/>
      <point x="391" y="727" type="line"/>
      <point x="394" y="522" type="line"/>
      <point x="464" y="537"/>
      <point x="544" y="548"/>
      <point x="633" y="548" type="curve" smooth="yes"/>
      <point x="761" y="548"/>
      <point x="823" y="493"/>
    </contour>
  </outline>
</glyph>
<glyph name="i" format="1">
  <advance width="423"/>
  <unicode hex="0069"/>
  <outline>
    <contour>
      <point x="409" y="526" type="line"/>
      <point x="19" y="536" type="line"/>
      <point x="7" y="708" type="line"/>
      <point x="402" y="728" type="line"/>
    </contour>
    <contour>
      <point x="409" y="493" type="line"/>
      <point x="383" y="-6" type="line"/>
      <point x="25" y="7" type="line"/>
      <point x="14" y="518" type="line"/>
    </contour>
  </outline>
</glyph>
<glyph name="j" format="1">
  <advance width="418"/>
  <unicode hex="006A"/>
  <outline>
    <contour>
      <point x="400" y="698" type="line"/>
      <point x="396" y="554" type="line"/>
      <point x="21" y="547" type="line"/>
      <point x="20" y="725" type="line"/>
    </contour>
    <contour>
      <point x="395" y="238" type="line" smooth="yes"/>
      <point x="399" y="25"/>
      <point x="364" y="-69"/>
      <point x="307" y="-143" type="curve"/>
      <point x="-12" y="-120" type="line"/>
      <point x="17" y="-39"/>
      <point x="29" y="61"/>
      <point x="26" y="205" type="curve" smooth="yes"/>
      <point x="20" y="518" type="line"/>
      <point x="389" y="526" type="line"/>
    </contour>
  </outline>
</glyph>
<glyph name="k" format="1">
  <advance width="837"/>
  <unicode hex="006B"/>
  <outline>
    <contour>
      <point x="835" y="13" type="line"/>
      <point x="482" y="-7" type="line"/>
      <point x="423" y="108" type="line"/>
      <point x="401" y="86" type="line"/>
      <point x="410" y="-21" type="line"/>
      <point x="22" y="11" type="line"/>
      <point x="14" y="724" type="line"/>
      <point x="396" y="711" type="line"/>
      <point x="385" y="342" type="line"/>
      <point x="464" y="551" type="line"/>
      <point x="833" y="547" type="line"/>
      <point x="715" y="340" type="line"/>
    </contour>
  </outline>
</glyph>
<glyph name="l" format="1">
  <advance width="418"/>
  <unicode hex="006C"/>
  <outline>
    <contour>
      <point x="400" y="6" type="line"/>
      <point x="22" y="-4" type="line"/>
      <point x="11" y="716" type="line"/>
      <point x="389" y="729" type="line"/>
    </contour>
  </outline>
</glyph>
<glyph name="m" format="1">
  <advance width="1125"/>
  <unicode hex="006D"/>
  <outline>
    <contour>
      <point x="1109" y="4" type="line"/>
      <point x="773" y="-13" type="line"/>
      <point x="782" y="293" type="line" smooth="yes"/>
      <point x="783" y="325"/>
      <point x="770" y="333"/>
      <point x="742" y="326" type="curve"/>
      <point x="727" y="-2" type="line"/>
      <point x="396" y="20" type="line"/>
      <point x="399" y="241" type="line" smooth="yes"/>
      <point x="400" y="305"/>
      <point x="389" y="320"/>
      <point x="355" y="320" type="curve"/>
      <point x="363" y="4" type="line"/>
      <point x="11" y="-9" type="line"/>
      <point x="22" y="536" type="line"/>
      <point x="347" y="556" type="line"/>
      <point x="356" y="518" type="line"/>
      <point x="417" y="535"/>
      <point x="473" y="553"/>
      <point x="560" y="553" type="curve" smooth="yes"/>
      <point x="628" y="553"/>
      <point x="672" y="539"/>
      <point x="697" y="505" type="curve"/>
      <point x="754" y="536"/>
      <point x="815" y="554"/>
      <point x="926" y="554" type="curve" smooth="yes"/>
      <point x="1048" y="554"/>
      <point x="1109" y="509"/>
      <point x="1109" y="367" type="curve" smooth="yes"/>
    </contour>
  </outline>
</glyph>
<glyph name="n" format="1">
  <advance width="810"/>
  <unicode hex="006E"/>
  <outline>
    <contour>
      <point x="796" y="-1" type="line"/>
      <point x="433" y="-12" type="line"/>
      <point x="416" y="275" type="line" smooth="yes"/>
      <point x="414" y="307"/>
      <point x="400" y="319"/>
      <point x="374" y="319" type="curve"/>
      <point x="389" y="13" type="line"/>
      <point x="14" y="7" type="line"/>
      <point x="20" y="535" type="line"/>
      <point x="382" y="554" type="line"/>
      <point x="385" y="518" type="line"/>
      <point x="466" y="542"/>
      <point x="527" y="554"/>
      <point x="614" y="554" type="curve" smooth="yes"/>
      <point x="740" y="554"/>
      <point x="788" y="510"/>
      <point x="790" y="387" type="curve" smooth="yes"/>
    </contour>
  </outline>
</glyph>
<glyph name="o" format="1">
  <advance width="740"/>
  <unicode hex="006F"/>
  <outline>
    <contour>
      <point x="732" y="252" type="curve" smooth="yes"/>
      <point x="732" y="28"/>
      <point x="663" y="-10"/>
      <point x="328" y="-10" type="curve" smooth="yes"/>
      <point x="48" y="-10"/>
      <point x="7" y="47"/>
      <point x="7" y="259" type="curve" smooth="yes"/>
      <point x="7" y="517"/>
      <point x="67" y="553"/>
      <point x="413" y="553" type="curve" smooth="yes"/>
      <point x="646" y="553"/>
      <point x="732" y="494"/>
    </contour>
    <contour>
      <point x="396" y="298" type="curve" smooth="yes"/>
      <point x="396" y="349"/>
      <point x="392" y="360"/>
      <point x="372" y="360" type="curve" smooth="yes"/>
      <point x="349" y="360"/>
      <point x="346" y="348"/>
      <point x="346" y="268" type="curve" smooth="yes"/>
      <point x="346" y="202"/>
      <point x="349" y="184"/>
      <point x="369" y="184" type="curve" smooth="yes"/>
      <point x="388" y="184"/>
      <point x="396" y="193"/>
    </contour>
  </outline>
</glyph>
<glyph name="p" format="1">
  <advance width="810"/>
  <unicode hex="0070"/>
  <outline>
    <contour>
      <point x="800" y="306" type="curve" smooth="yes"/>
      <point x="800" y="55"/>
      <point x="733" y="-5"/>
      <point x="571" y="-5" type="curve" smooth="yes"/>
      <point x="491" y="-5"/>
      <point x="433" y="11"/>
      <point x="382" y="31" type="curve"/>
      <point x="364" y="-134" type="line"/>
      <point x="9" y="-114" type="line"/>
      <point x="23" y="570" type="line"/>
      <point x="378" y="550" type="line"/>
      <point x="374" y="490" type="line"/>
      <point x="436" y="536"/>
      <point x="509" y="551"/>
      <point x="590" y="551" type="curve" smooth="yes"/>
      <point x="743" y="551"/>
      <point x="800" y="471"/>
    </contour>
    <contour>
      <point x="436" y="254" type="curve" smooth="yes"/>
      <point x="436" y="318"/>
      <point x="426" y="335"/>
      <point x="408" y="335" type="curve" smooth="yes"/>
      <point x="389" y="335"/>
      <point x="386" y="319"/>
      <point x="386" y="247" type="curve" smooth="yes"/>
      <point x="386" y="190"/>
      <point x="393" y="175"/>
      <point x="412" y="175" type="curve" smooth="yes"/>
      <point x="431" y="175"/>
      <point x="436" y="198"/>
    </contour>
  </outline>
</glyph>
<glyph name="q" format="1">
  <advance width="810"/>
  <unicode hex="0071"/>
  <outline>
    <contour>
      <point x="801" y="556" type="line"/>
      <point x="776" y="-113" type="line"/>
      <point x="425" y="-130" type="line"/>
      <point x="441" y="34" type="line"/>
      <point x="370" y="5"/>
      <point x="298" y="-9"/>
      <point x="214" y="-9" type="curve" smooth="yes"/>
      <point x="56" y="-9"/>
      <point x="7" y="64"/>
      <point x="7" y="284" type="curve" smooth="yes"/>
      <point x="7" y="475"/>
      <point x="76" y="553"/>
      <point x="238" y="553" type="curve" smooth="yes"/>
      <point x="319" y="553"/>
      <point x="384" y="536"/>
      <point x="463" y="499" type="curve"/>
      <point x="475" y="572" type="line"/>
    </contour>
    <contour>
      <point x="436" y="247" type="curve" smooth="yes"/>
      <point x="436" y="320"/>
      <point x="426" y="331"/>
      <point x="413" y="331" type="curve" smooth="yes"/>
      <point x="391" y="331"/>
      <point x="383" y="318"/>
      <point x="383" y="284" type="curve" smooth="yes"/>
      <point x="383" y="203"/>
      <point x="391" y="190"/>
      <point x="409" y="190" type="curve" smooth="yes"/>
      <point x="429" y="190"/>
      <point x="436" y="199"/>
    </contour>
  </outline>
</glyph>
<glyph name="r" format="1">
  <advance width="634"/>
  <unicode hex="0072"/>
  <outline>
    <contour>
      <point x="630" y="264" type="line"/>
      <point x="582" y="276"/>
      <point x="544" y="283"/>
      <point x="492" y="283" type="curve" smooth="yes"/>
      <point x="423" y="283"/>
      <point x="392" y="265"/>
      <point x="403" y="184" type="curve" smooth="yes"/>
      <point x="427" y="4" type="line"/>
      <point x="33" y="-15" type="line"/>
      <point x="10" y="542" type="line"/>
      <point x="330" y="553" type="line"/>
      <point x="345" y="509" type="line"/>
      <point x="398" y="538"/>
      <point x="508" y="572"/>
      <point x="623" y="574" type="curve"/>
    </contour>
  </outline>
</glyph>
<glyph name="s" format="1">
  <advance width="672"/>
  <unicode hex="0073"/>
  <outline>
    <contour>
      <point x="666" y="519" type="curve"/>
      <point x="627" y="336" type="line"/>
      <point x="546" y="353"/>
      <point x="445" y="364"/>
      <point x="371" y="364" type="curve" smooth="yes"/>
      <point x="328" y="364"/>
      <point x="319" y="361"/>
      <point x="319" y="354" type="curve" smooth="yes"/>
      <point x="319" y="347"/>
      <point x="326" y="345"/>
      <point x="402" y="336" type="curve" smooth="yes"/>
      <point x="619" y="309"/>
      <point x="652" y="278"/>
      <point x="652" y="166" type="curve" smooth="yes"/>
      <point x="652" y="30"/>
      <point x="593" y="-6"/>
      <point x="328" y="-6" type="curve" smooth="yes"/>
      <point x="224" y="-6"/>
      <point x="86" y="7"/>
      <point x="8" y="32" type="curve"/>
      <point x="23" y="197" type="line"/>
      <point x="109" y="175"/>
      <point x="234" y="156"/>
      <point x="321" y="156" type="curve" smooth="yes"/>
      <point x="339" y="156"/>
      <point x="345" y="160"/>
      <point x="345" y="166" type="curve" smooth="yes"/>
      <point x="345" y="175"/>
      <point x="337" y="176"/>
      <point x="295" y="181" type="curve" smooth="yes"/>
      <point x="58" y="207"/>
      <point x="16" y="245"/>
      <point x="16" y="374" type="curve" smooth="yes"/>
      <point x="16" y="523"/>
      <point x="86" y="551"/>
      <point x="353" y="551" type="curve" smooth="yes"/>
      <point x="498" y="551"/>
      <point x="583" y="539"/>
    </contour>
  </outline>
</glyph>
<glyph name="t" format="1">
  <advance width="639"/>
  <unicode hex="0074"/>
  <outline>
    <contour>
      <point x="632" y="36" type="line"/>
      <point x="550" y="6"/>
      <point x="469" y="-11"/>
      <point x="329" y="-11" type="curve" smooth="yes"/>
      <point x="121" y="-11"/>
      <point x="83" y="31"/>
      <point x="81" y="176" type="curve" smooth="yes"/>
      <point x="79" y="328" type="line"/>
      <point x="5" y="333" type="line"/>
      <point x="5" y="504" type="line"/>
      <point x="90" y="517" type="line"/>
      <point x="83" y="695" type="line"/>
      <point x="445" y="734" type="line"/>
      <point x="462" y="536" type="line"/>
      <point x="619" y="547" type="line"/>
      <point x="626" y="342" type="line"/>
      <point x="451" y="337" type="line"/>
      <point x="455" y="285" type="line" smooth="yes"/>
      <point x="459" y="229"/>
      <point x="473" y="215"/>
      <point x="518" y="215" type="curve" smooth="yes"/>
      <point x="560" y="215"/>
      <point x="578" y="218"/>
      <point x="623" y="229" type="curve"/>
    </contour>
  </outline>
</glyph>
<glyph name="u" format="1">
  <advance width="810"/>
  <unicode hex="0075"/>
  <outline>
    <contour>
      <point x="800" y="531" type="line"/>
      <point x="793" y="13" type="line"/>
      <point x="424" y="-20" type="line"/>
      <point x="422" y="47" type="line"/>
      <point x="344" y="5"/>
      <point x="288" y="-8"/>
      <point x="197" y="-8" type="curve" smooth="yes"/>
      <point x="57" y="-8"/>
      <point x="12" y="25"/>
      <point x="13" y="147" type="curve" smooth="yes"/>
      <point x="15" y="534" type="line"/>
      <point x="405" y="544" type="line"/>
      <point x="387" y="244" type="line" smooth="yes"/>
      <point x="385" y="215"/>
      <point x="395" y="202"/>
      <point x="423" y="202" type="curve"/>
      <point x="445" y="560" type="line"/>
    </contour>
  </outline>
</glyph>
<glyph name="v" format="1">
  <advance width="850"/>
  <unicode hex="0076"/>
  <outline>
    <contour>
      <point x="849" y="528" type="line"/>
      <point x="683" y="2" type="line"/>
      <point x="186" y="-7" type="line"/>
      <point x="1" y="544" type="line"/>
      <point x="373" y="560" type="line"/>
      <point x="448" y="225" type="line"/>
      <point x="516" y="552" type="line"/>
    </contour>
  </outline>
</glyph>
<glyph name="w" format="1">
  <advance width="1065"/>
  <unicode hex="0077"/>
  <outline>
    <contour>
      <point x="1064" y="539" type="line"/>
      <point x="945" y="-9" type="line"/>
      <point x="589" y="12" type="line"/>
      <point x="522" y="194" type="line"/>
      <point x="463" y="3" type="line"/>
      <point x="92" y="-7" type="line"/>
      <point x="1" y="510" type="line"/>
      <point x="284" y="558" type="line"/>
      <point x="346" y="249" type="line"/>
      <point x="397" y="545" type="line"/>
      <point x="661" y="539" type="line"/>
      <point x="697" y="271" type="line"/>
      <point x="751" y="555" type="line"/>
    </contour>
  </outline>
</glyph>
<glyph name="x" format="1">
  <advance width="801"/>
  <unicode hex="0078"/>
  <outline>
    <contour>
      <point x="809" y="21" type="line"/>
      <point x="455" y="-5" type="line"/>
      <point x="392" y="126" type="line"/>
      <point x="316" y="-5" type="line"/>
      <point x="-11" y="13" type="line"/>
      <point x="130" y="287" type="line"/>
      <point x="-15" y="523" type="line"/>
      <point x="352" y="553" type="line"/>
      <point x="401" y="408" type="line"/>
      <point x="486" y="553" type="line"/>
      <point x="804" y="532" type="line"/>
      <point x="680" y="282" type="line"/>
    </contour>
  </outline>
</glyph>
<glyph name="y" format="1">
  <advance width="825"/>
  <unicode hex="0079"/>
  <outline>
    <contour>
      <point x="835" y="498" type="line"/>
      <point x="479" y="-144" type="line"/>
      <point x="130" y="-103" type="line"/>
      <point x="236" y="42" type="line"/>
      <point x="-14" y="492" type="line"/>
      <point x="314" y="569" type="line"/>
      <point x="403" y="340" type="line"/>
      <point x="481" y="568" type="line"/>
    </contour>
  </outline>
</glyph>
<glyph name="z" format="1">
  <advance width="693"/>
  <unicode hex="007A"/>
  <outline>
    <contour>
      <point x="688" y="356" type="line"/>
      <point x="447" y="199" type="line"/>
      <point x="669" y="190" type="line"/>
      <point x="682" y="7" type="line"/>
      <point x="37" y="-7" type="line"/>
      <point x="9" y="180" type="line"/>
      <point x="229" y="360" type="line"/>
      <point x="9" y="348" type="line"/>
      <point x="14" y="552" type="line"/>
      <point x="679" y="534" type="line"/>
    </contour>
  </outline>
</glyph>
<glyph name="braceleft" format="1">
  <advance width="553"/>
  <unicode hex="007B"/>
  <outline>
    <contour>
      <point x="549" y="535" type="line"/>
      <point x="424" y="525"/>
      <point x="400" y="512"/>
      <point x="400" y="476" type="curve" smooth="yes"/>
      <point x="400" y="452"/>
      <point x="415" y="409"/>
      <point x="428" y="377" type="curve"/>
      <point x="306" y="333" type="line"/>
      <point x="424" y="303" type="line"/>
      <point x="418" y="271"/>
      <point x="413" y="244"/>
      <point x="413" y="224" type="curve" smooth="yes"/>
      <point x="413" y="195"/>
      <point x="429" y="183"/>
      <point x="547" y="175" type="curve"/>
      <point x="530" y="-18" type="line"/>
      <point x="150" y="-14"/>
      <point x="101" y="13"/>
      <point x="101" y="76" type="curve" smooth="yes"/>
      <point x="101" y="119"/>
      <point x="118" y="167"/>
      <point x="144" y="223" type="curve"/>
      <point x="6" y="251" type="line"/>
      <point x="14" y="429" type="line"/>
      <point x="133" y="447" type="line"/>
      <point x="104" y="505"/>
      <point x="90" y="555"/>
      <point x="90" y="600" type="curve" smooth="yes"/>
      <point x="90" y="672"/>
      <point x="132" y="724"/>
      <point x="533" y="732" type="curve"/>
    </contour>
  </outline>
</glyph>
<glyph name="bar" format="1">
  <advance width="396"/>
  <unicode hex="007C"/>
  <outline>
    <contour>
      <point x="376" y="3" type="line"/>
      <point x="25" y="-22" type="line"/>
      <point x="14" y="721" type="line"/>
      <point x="373" y="733" type="line"/>
    </contour>
  </outline>
</glyph>
<glyph name="braceright" format="1">
  <advance width="553"/>
  <unicode hex="007D"/>
  <outline>
    <contour>
      <point x="546" y="250" type="line"/>
      <point x="421" y="221" type="line"/>
      <point x="445" y="181"/>
      <point x="457" y="149"/>
      <point x="457" y="112" type="curve" smooth="yes"/>
      <point x="457" y="23"/>
      <point x="414" y="-6"/>
      <point x="26" y="-18" type="curve"/>
      <point x="8" y="171" type="line"/>
      <point x="128" y="183"/>
      <point x="144" y="202"/>
      <point x="144" y="238" type="curve" smooth="yes"/>
      <point x="144" y="259"/>
      <point x="137" y="282"/>
      <point x="123" y="306" type="curve"/>
      <point x="243" y="333" type="line"/>
      <point x="128" y="378" type="line"/>
      <point x="141" y="410"/>
      <point x="153" y="450"/>
      <point x="153" y="482" type="curve" smooth="yes"/>
      <point x="153" y="532"/>
      <point x="114" y="539"/>
      <point x="4" y="542" type="curve"/>
      <point x="33" y="733" type="line"/>
      <point x="323" y="734"/>
      <point x="464" y="709"/>
      <point x="464" y="608" type="curve" smooth="yes"/>
      <point x="464" y="553"/>
      <point x="447" y="501"/>
      <point x="428" y="448" type="curve"/>
      <point x="541" y="401" type="line"/>
    </contour>
  </outline>
</glyph>
<glyph name="asciitilde" format="1">
  <advance width="783"/>
  <unicode hex="007E"/>
  <outline>
    <contour>
      <point x="782" y="291" type="line"/>
      <point x="558" y="133" type="line"/>
      <point x="262" y="212" type="line"/>
      <point x="63" y="127" type="line"/>
      <point x="1" y="445" type="line"/>
      <point x="275" y="588" type="line"/>
      <point x="497" y="504" type="line"/>
      <point x="690" y="591" type="line"/>
    </contour>
  </outline>
</glyph>
<glyph name="cent" format="1">
  <advance width="642"/>
  <unicode hex="00A2"/>
  <outline>
    <contour>
      <point x="630" y="623" type="curve"/>
      <point x="600" y="393" type="line"/>
      <point x="532" y="413"/>
      <point x="503" y="421"/>
      <point x="433" y="421" type="curve" smooth="yes"/>
      <point x="375" y="421"/>
      <point x="360" y="410"/>
      <point x="360" y="348" type="curve" smooth="yes"/>
      <point x="360" y="284"/>
      <point x="376" y="271"/>
      <point x="466" y="271" type="curve" smooth="yes"/>
      <point x="518" y="271"/>
      <point x="546" y="275"/>
      <point x="590" y="283" type="curve"/>
      <point x="621" y="85" type="line"/>
      <point x="566" y="74"/>
      <point x="517" y="66"/>
      <point x="450" y="61" type="curve"/>
      <point x="428" y="-13" type="line"/>
      <point x="224" y="0" type="line"/>
      <point x="227" y="64" type="line"/>
      <point x="26" y="86"/>
      <point x="7" y="180"/>
      <point x="7" y="368" type="curve" smooth="yes"/>
      <point x="7" y="553"/>
      <point x="27" y="632"/>
      <point x="215" y="651" type="curve"/>
      <point x="222" y="718" type="line"/>
      <point x="433" y="738" type="line"/>
      <point x="443" y="653" type="line"/>
      <point x="520" y="649"/>
      <point x="568" y="640"/>
    </contour>
  </outline>
</glyph>
<glyph name="sterling" format="1">
  <advance width="837"/>
  <unicode hex="00A3"/>
  <outline>
    <contour>
      <point x="824" y="680" type="curve"/>
      <point x="789" y="451" type="line"/>
      <point x="679" y="474"/>
      <point x="585" y="480"/>
      <point x="506" y="480" type="curve" smooth="yes"/>
      <point x="441" y="480"/>
      <point x="415" y="472"/>
      <point x="406" y="439" type="curve"/>
      <point x="603" y="442" type="line"/>
      <point x="578" y="251" type="line"/>
      <point x="415" y="259" type="line"/>
      <point x="418" y="245"/>
      <point x="422" y="230"/>
      <point x="427" y="216" type="curve"/>
      <point x="813" y="247" type="line"/>
      <point x="776" y="9" type="line"/>
      <point x="25" y="-5" type="line"/>
      <point x="6" y="184" type="line"/>
      <point x="114" y="192" type="line"/>
      <point x="106" y="219"/>
      <point x="100" y="246"/>
      <point x="94" y="275" type="curve"/>
      <point x="2" y="280" type="line"/>
      <point x="9" y="433" type="line"/>
      <point x="79" y="434" type="line"/>
      <point x="78" y="458"/>
      <point x="77" y="484"/>
      <point x="77" y="511" type="curve" smooth="yes"/>
      <point x="77" y="654"/>
      <point x="167" y="724"/>
      <point x="350" y="724" type="curve" smooth="yes"/>
      <point x="562" y="724"/>
      <point x="670" y="713"/>
    </contour>
  </outline>
</glyph>
<glyph name="yen" format="1">
  <advance width="936"/>
  <unicode hex="00A5"/>
  <outline>
    <contour>
      <point x="935" y="695" type="line"/>
      <point x="701" y="341" type="line"/>
      <point x="878" y="347" type="line"/>
      <point x="855" y="106" type="line"/>
      <point x="652" y="103" type="line"/>
      <point x="644" y="-19" type="line"/>
      <point x="227" y="15" type="line"/>
      <point x="237" y="99" type="line"/>
      <point x="56" y="97" type="line"/>
      <point x="38" y="317" type="line"/>
      <point x="204" y="323" type="line"/>
      <point x="1" y="671" type="line"/>
      <point x="367" y="733" type="line"/>
      <point x="473" y="535" type="line"/>
      <point x="565" y="725" type="line"/>
    </contour>
  </outline>
</glyph>
<glyph name="section" format="1">
  <advance width="774"/>
  <unicode hex="00A7"/>
  <outline>
    <contour>
      <point x="771" y="683" type="curve"/>
      <point x="729" y="523" type="line"/>
      <point x="626" y="544"/>
      <point x="551" y="555"/>
      <point x="451" y="555" type="curve" smooth="yes"/>
      <point x="375" y="555"/>
      <point x="355" y="550"/>
      <point x="355" y="536" type="curve" smooth="yes"/>
      <point x="355" y="529"/>
      <point x="357" y="523"/>
      <point x="369" y="515" type="curve"/>
      <point x="423" y="519"/>
      <point x="482" y="522"/>
      <point x="547" y="522" type="curve" smooth="yes"/>
      <point x="669" y="522"/>
      <point x="752" y="492"/>
      <point x="752" y="371" type="curve" smooth="yes"/>
      <point x="752" y="320"/>
      <point x="735" y="284"/>
      <point x="696" y="258" type="curve"/>
      <point x="739" y="227"/>
      <point x="763" y="193"/>
      <point x="763" y="139" type="curve" smooth="yes"/>
      <point x="763" y="33"/>
      <point x="688" y="-4"/>
      <point x="414" y="-4" type="curve" smooth="yes"/>
      <point x="222" y="-4"/>
      <point x="105" y="14"/>
      <point x="3" y="39" type="curve"/>
      <point x="20" y="206" type="line"/>
      <point x="131" y="175"/>
      <point x="247" y="166"/>
      <point x="347" y="166" type="curve" smooth="yes"/>
      <point x="399" y="166"/>
      <point x="418" y="171"/>
      <point x="418" y="185" type="curve" smooth="yes"/>
      <point x="418" y="190"/>
      <point x="417" y="195"/>
      <point x="410" y="201" type="curve"/>
      <point x="364" y="199"/>
      <point x="310" y="198"/>
      <point x="251" y="198" type="curve" smooth="yes"/>
      <point x="76" y="198"/>
      <point x="15" y="237"/>
      <point x="15" y="343" type="curve" smooth="yes"/>
      <point x="15" y="385"/>
      <point x="43" y="421"/>
      <point x="96" y="449" type="curve"/>
      <point x="35" y="486"/>
      <point x="11" y="521"/>
      <point x="11" y="583" type="curve" smooth="yes"/>
      <point x="11" y="679"/>
      <point x="72" y="724"/>
      <point x="382" y="724" type="curve" smooth="yes"/>
      <point x="550" y="724"/>
      <point x="671" y="709"/>
    </contour>
  </outline>
</glyph>
<glyph name="dieresis" format="1">
  <advance width="540"/>
  <unicode hex="00A8"/>
  <outline>
    <contour>
      <point x="535" y="779" type="line"/>
      <point x="524" y="566" type="line"/>
      <point x="299" y="575" type="line"/>
      <point x="285" y="785" type="line"/>
    </contour>
    <contour>
      <point x="265" y="570" type="line"/>
      <point x="11" y="572" type="line"/>
      <point x="6" y="755" type="line"/>
      <point x="263" y="766" type="line"/>
    </contour>
  </outline>
</glyph>
<glyph name="copyright" format="1">
  <advance width="900"/>
  <unicode hex="00A9"/>
  <outline>
    <contour>
      <point x="889" y="331" type="curve" smooth="yes"/>
      <point x="889" y="80"/>
      <point x="768" y="-13"/>
      <point x="398" y="-13" type="curve" smooth="yes"/>
      <point x="106" y="-13"/>
      <point x="9" y="84"/>
      <point x="9" y="341" type="curve" smooth="yes"/>
      <point x="9" y="660"/>
      <point x="108" y="727"/>
      <point x="503" y="727" type="curve" smooth="yes"/>
      <point x="760" y="727"/>
      <point x="889" y="628"/>
    </contour>
    <contour>
      <point x="748" y="331" type="curve" smooth="yes"/>
      <point x="748" y="554"/>
      <point x="690" y="610"/>
      <point x="501" y="610" type="curve" smooth="yes"/>
      <point x="202" y="610"/>
      <point x="156" y="557"/>
      <point x="156" y="341" type="curve" smooth="yes"/>
      <point x="156" y="180"/>
      <point x="203" y="104"/>
      <point x="405" y="104" type="curve" smooth="yes"/>
      <point x="684" y="104"/>
      <point x="748" y="116"/>
    </contour>
    <contour>
      <point x="669" y="541" type="curve"/>
      <point x="647" y="381" type="line"/>
      <point x="597" y="396"/>
      <point x="566" y="400"/>
      <point x="521" y="400" type="curve" smooth="yes"/>
      <point x="480" y="400"/>
      <point x="468" y="386"/>
      <point x="468" y="349" type="curve" smooth="yes"/>
      <point x="468" y="312"/>
      <point x="485" y="296"/>
      <point x="547" y="296" type="curve" smooth="yes"/>
      <point x="587" y="296"/>
      <point x="607" y="298"/>
      <point x="640" y="304" type="curve"/>
      <point x="662" y="167" type="line"/>
      <point x="601" y="154"/>
      <point x="556" y="147"/>
      <point x="458" y="147" type="curve" smooth="yes"/>
      <point x="245" y="147"/>
      <point x="213" y="211"/>
      <point x="213" y="362" type="curve" smooth="yes"/>
      <point x="213" y="515"/>
      <point x="251" y="564"/>
      <point x="455" y="564" type="curve" smooth="yes"/>
      <point x="551" y="564"/>
      <point x="605" y="558"/>
    </contour>
  </outline>
</glyph>
<glyph name="ordfeminine" format="1">
  <advance width="598"/>
  <unicode hex="00AA"/>
  <outline>
    <contour>
      <point x="580" y="595" type="curve" smooth="yes"/>
      <point x="570" y="294" type="line"/>
      <point x="336" y="266" type="line"/>
      <point x="332" y="310" type="line"/>
      <point x="274" y="288"/>
      <point x="214" y="274"/>
      <point x="147" y="274" type="curve" smooth="yes"/>
      <point x="51" y="274"/>
      <point x="12" y="302"/>
      <point x="12" y="386" type="curve" smooth="yes"/>
      <point x="12" y="497"/>
      <point x="86" y="542"/>
      <point x="328" y="542" type="curve"/>
      <point x="330" y="560"/>
      <point x="319" y="568"/>
      <point x="285" y="568" type="curve" smooth="yes"/>
      <point x="202" y="568"/>
      <point x="153" y="559"/>
      <point x="84" y="543" type="curve"/>
      <point x="51" y="690" type="line"/>
      <point x="127" y="711"/>
      <point x="203" y="724"/>
      <point x="314" y="724" type="curve" smooth="yes"/>
      <point x="508" y="724"/>
      <point x="584" y="708"/>
    </contour>
    <contour>
      <point x="571" y="240" type="line"/>
      <point x="543" y="112" type="line"/>
      <point x="26" y="113" type="line"/>
      <point x="33" y="256" type="line"/>
    </contour>
    <contour>
      <point x="332" y="420" type="curve"/>
      <point x="328" y="445" type="line"/>
      <point x="253" y="445"/>
      <point x="239" y="435"/>
      <point x="239" y="418" type="curve" smooth="yes"/>
      <point x="239" y="409"/>
      <point x="247" y="405"/>
      <point x="266" y="405" type="curve" smooth="yes"/>
      <point x="285" y="405"/>
      <point x="311" y="409"/>
    </contour>
  </outline>
</glyph>
<glyph name="guillemotleft" format="1">
  <advance width="855"/>
  <unicode hex="00AB"/>
  <outline>
    <contour>
      <point x="455" y="29" type="line"/>
      <point x="174" y="-16" type="line"/>
      <point x="4" y="223" type="line"/>
      <point x="175" y="603" type="line"/>
      <point x="442" y="520" type="line"/>
      <point x="330" y="256" type="line"/>
    </contour>
    <contour>
      <point x="847" y="-22" type="line"/>
      <point x="500" y="0" type="line"/>
      <point x="369" y="288" type="line"/>
      <point x="513" y="553" type="line"/>
      <point x="822" y="574" type="line"/>
      <point x="717" y="256" type="line"/>
    </contour>
  </outline>
</glyph>
<glyph name="macron" format="1">
  <advance width="540"/>
  <unicode hex="00AF"/>
  <unicode hex="02C9"/>
  <outline>
    <contour>
      <point x="508" y="586" type="line"/>
      <point x="36" y="562" type="line"/>
      <point x="31" y="753" type="line"/>
      <point x="503" y="764" type="line"/>
    </contour>
  </outline>
</glyph>
<glyph name="degree" format="1">
  <advance width="586"/>
  <unicode hex="00B0"/>
  <outline>
    <contour>
      <point x="579" y="468" type="curve" smooth="yes"/>
      <point x="579" y="277"/>
      <point x="526" y="245"/>
      <point x="259" y="245" type="curve" smooth="yes"/>
      <point x="39" y="245"/>
      <point x="7" y="293"/>
      <point x="7" y="475" type="curve" smooth="yes"/>
      <point x="7" y="695"/>
      <point x="55" y="725"/>
      <point x="328" y="725" type="curve" smooth="yes"/>
      <point x="512" y="725"/>
      <point x="579" y="676"/>
    </contour>
    <contour>
      <point x="314" y="513" type="curve" smooth="yes"/>
      <point x="314" y="567"/>
      <point x="310" y="579"/>
      <point x="295" y="579" type="curve" smooth="yes"/>
      <point x="277" y="579"/>
      <point x="274" y="567"/>
      <point x="274" y="480" type="curve" smooth="yes"/>
      <point x="274" y="409"/>
      <point x="277" y="390"/>
      <point x="292" y="390" type="curve" smooth="yes"/>
      <point x="308" y="390"/>
      <point x="314" y="400"/>
    </contour>
  </outline>
</glyph>
<glyph name="acute" format="1">
  <advance width="540"/>
  <unicode hex="00B4"/>
  <outline>
    <contour>
      <point x="481" y="620" type="line"/>
      <point x="133" y="564" type="line"/>
      <point x="77" y="691" type="line"/>
      <point x="418" y="824" type="line"/>
    </contour>
  </outline>
</glyph>
<glyph name="paragraph" format="1">
  <advance width="810"/>
  <unicode hex="00B6"/>
  <outline>
    <contour>
      <point x="805" y="706" type="line"/>
      <point x="752" y="-4" type="line"/>
      <point x="557" y="14" type="line"/>
      <point x="617" y="571" type="line"/>
      <point x="565" y="577" type="line"/>
      <point x="532" y="38" type="line"/>
      <point x="358" y="7" type="line"/>
      <point x="338" y="229" type="line"/>
      <point x="87" y="292"/>
      <point x="7" y="367"/>
      <point x="7" y="554" type="curve" smooth="yes"/>
      <point x="7" y="688"/>
      <point x="95" y="728"/>
      <point x="232" y="724" type="curve" smooth="yes"/>
    </contour>
  </outline>
</glyph>
<glyph name="periodcentered" format="1">
  <advance width="409"/>
  <unicode hex="00B7"/>
  <unicode hex="2219"/>
  <outline>
    <contour>
      <point x="396" y="189" type="line"/>
      <point x="18" y="193" type="line"/>
      <point x="13" y="464" type="line"/>
      <point x="392" y="481" type="line"/>
    </contour>
  </outline>
</glyph>
<glyph name="cedilla" format="1">
  <advance width="540"/>
  <unicode hex="00B8"/>
  <outline>
    <contour>
      <point x="455" y="-121" type="line"/>
      <point x="108" y="-167" type="line"/>
      <point x="52" y="-68" type="line"/>
      <point x="392" y="65" type="line"/>
    </contour>
  </outline>
</glyph>
<glyph name="ordmasculine" format="1">
  <advance width="592"/>
  <unicode hex="00BA"/>
  <outline>
    <contour>
      <point x="585" y="486" type="curve" smooth="yes"/>
      <point x="585" y="307"/>
      <point x="531" y="276"/>
      <point x="262" y="276" type="curve" smooth="yes"/>
      <point x="38" y="276"/>
      <point x="5" y="322"/>
      <point x="5" y="491" type="curve" smooth="yes"/>
      <point x="5" y="697"/>
      <point x="54" y="726"/>
      <point x="330" y="726" type="curve" smooth="yes"/>
      <point x="517" y="726"/>
      <point x="585" y="679"/>
    </contour>
    <contour>
      <point x="560" y="108" type="line"/>
      <point x="34" y="113" type="line"/>
      <point x="52" y="244" type="line"/>
      <point x="558" y="253" type="line"/>
    </contour>
    <contour>
      <point x="319" y="527" type="curve" smooth="yes"/>
      <point x="319" y="580"/>
      <point x="315" y="591"/>
      <point x="297" y="591" type="curve" smooth="yes"/>
      <point x="278" y="591"/>
      <point x="274" y="580"/>
      <point x="274" y="497" type="curve" smooth="yes"/>
      <point x="274" y="427"/>
      <point x="278" y="409"/>
      <point x="295" y="409" type="curve" smooth="yes"/>
      <point x="310" y="409"/>
      <point x="319" y="418"/>
    </contour>
  </outline>
</glyph>
<glyph name="guillemotright" format="1">
  <advance width="855"/>
  <unicode hex="00BB"/>
  <outline>
    <contour>
      <point x="850" y="315" type="line"/>
      <point x="720" y="14" type="line"/>
      <point x="431" y="-12" type="line"/>
      <point x="535" y="207" type="line"/>
      <point x="430" y="512" type="line"/>
      <point x="709" y="585" type="line"/>
    </contour>
    <contour>
      <point x="499" y="238" type="line"/>
      <point x="390" y="-30" type="line"/>
      <point x="8" y="36" type="line"/>
      <point x="115" y="292" type="line"/>
      <point x="62" y="567" type="line"/>
      <point x="360" y="558" type="line"/>
    </contour>
  </outline>
</glyph>
<glyph name="Aring" format="1">
  <advance width="864"/>
  <unicode hex="00C5"/>
  <outline>
    <contour>
      <point x="630" y="848" type="curve" smooth="yes"/>
      <point x="630" y="750"/>
      <point x="591" y="734"/>
      <point x="395" y="734" type="curve" smooth="yes"/>
      <point x="233" y="734"/>
      <point x="210" y="758"/>
      <point x="210" y="852" type="curve" smooth="yes"/>
      <point x="210" y="964"/>
      <point x="244" y="980"/>
      <point x="445" y="980" type="curve" smooth="yes"/>
      <point x="580" y="980"/>
      <point x="630" y="954"/>
    </contour>
    <contour>
      <point x="863" y="0" type="line"/>
      <point x="494" y="-30" type="line"/>
      <point x="478" y="74" type="line"/>
      <point x="362" y="64" type="line"/>
      <point x="350" y="-3" type="line"/>
      <point x="1" y="12" type="line"/>
      <point x="149" y="727" type="line"/>
      <point x="661" y="711" type="line"/>
    </contour>
    <contour>
      <point x="442" y="868" type="curve" smooth="yes"/>
      <point x="442" y="887"/>
      <point x="438" y="892"/>
      <point x="422" y="892" type="curve" smooth="yes"/>
      <point x="403" y="892"/>
      <point x="398" y="887"/>
      <point x="398" y="855" type="curve" smooth="yes"/>
      <point x="398" y="830"/>
      <point x="403" y="822"/>
      <point x="419" y="822" type="curve" smooth="yes"/>
      <point x="435" y="822"/>
      <point x="442" y="826"/>
    </contour>
    <contour>
      <point x="455" y="221" type="line"/>
      <point x="426" y="411" type="line"/>
      <point x="390" y="213" type="line"/>
    </contour>
  </outline>
</glyph>
<glyph name="AE" format="1">
  <advance width="1182"/>
  <unicode hex="00C6"/>
  <outline>
    <contour>
      <point x="1169" y="506" type="line"/>
      <point x="825" y="498" type="line"/>
      <point x="832" y="445" type="line"/>
      <point x="1103" y="470" type="line"/>
      <point x="1118" y="283" type="line"/>
      <point x="851" y="267" type="line"/>
      <point x="849" y="234" type="line"/>
      <point x="1151" y="225" type="line"/>
      <point x="1149" y="-7" type="line"/>
      <point x="461" y="6" type="line"/>
      <point x="460" y="72" type="line"/>
      <point x="364" y="64" type="line"/>
      <point x="350" y="-3" type="line"/>
      <point x="1" y="12" type="line"/>
      <point x="171" y="727" type="line"/>
      <point x="580" y="700" type="line"/>
      <point x="1159" y="725" type="line"/>
    </contour>
    <contour>
      <point x="458" y="222" type="line"/>
      <point x="454" y="494" type="line"/>
      <point x="396" y="214" type="line"/>
    </contour>
  </outline>
</glyph>
<glyph name="Ccedilla" format="1">
  <advance width="774"/>
  <unicode hex="00C7"/>
  <outline>
    <contour>
      <point x="769" y="686" type="curve"/>
      <point x="732" y="403" type="line"/>
      <point x="649" y="429"/>
      <point x="598" y="437"/>
      <point x="526" y="437" type="curve" smooth="yes"/>
      <point x="454" y="437"/>
      <point x="435" y="411"/>
      <point x="435" y="347" type="curve" smooth="yes"/>
      <point x="435" y="280"/>
      <point x="461" y="252"/>
      <point x="567" y="252" type="curve" smooth="yes"/>
      <point x="631" y="252"/>
      <point x="666" y="257"/>
      <point x="720" y="266" type="curve"/>
      <point x="758" y="23" type="line"/>
      <point x="679" y="6"/>
      <point x="616" y="-4"/>
      <point x="516" y="-9" type="curve"/>
      <point x="553" y="-121" type="line"/>
      <point x="206" y="-167" type="line"/>
      <point x="150" y="-68" type="line"/>
      <point x="309" y="-6" type="line"/>
      <point x="50" y="16"/>
      <point x="9" y="131"/>
      <point x="9" y="371" type="curve" smooth="yes"/>
      <point x="9" y="640"/>
      <point x="73" y="727"/>
      <point x="411" y="727" type="curve" smooth="yes"/>
      <point x="572" y="727"/>
      <point x="661" y="715"/>
    </contour>
  </outline>
</glyph>
<glyph name="Eth" format="1">
  <advance width="936"/>
  <unicode hex="00D0"/>
  <outline>
    <contour>
      <point x="927" y="398" type="curve" smooth="yes"/>
      <point x="927" y="81"/>
      <point x="803" y="-14"/>
      <point x="524" y="-7" type="curve" smooth="yes"/>
      <point x="59" y="4" type="line"/>
      <point x="68" y="220" type="line"/>
      <point x="4" y="227" type="line"/>
      <point x="4" y="455" type="line"/>
      <point x="65" y="457" type="line"/>
      <point x="52" y="716" type="line"/>
      <point x="644" y="725" type="line" smooth="yes"/>
      <point x="813" y="728"/>
      <point x="927" y="699"/>
    </contour>
    <contour>
      <point x="520" y="371" type="curve" smooth="yes"/>
      <point x="520" y="457"/>
      <point x="512" y="481"/>
      <point x="457" y="481" type="curve"/>
      <point x="461" y="221" type="line"/>
      <point x="510" y="225"/>
      <point x="520" y="247"/>
    </contour>
  </outline>
</glyph>
<glyph name="Oslash" format="1">
  <advance width="900"/>
  <unicode hex="00D8"/>
  <outline>
    <contour>
      <point x="889" y="331" type="curve" smooth="yes"/>
      <point x="889" y="37"/>
      <point x="807" y="-13"/>
      <point x="398" y="-13" type="curve" smooth="yes"/>
      <point x="381" y="-13"/>
      <point x="364" y="-13"/>
      <point x="347" y="-12" type="curve"/>
      <point x="256" y="-122" type="line"/>
      <point x="43" y="-45" type="line"/>
      <point x="99" y="40" type="line"/>
      <point x="24" y="92"/>
      <point x="9" y="184"/>
      <point x="9" y="341" type="curve" smooth="yes"/>
      <point x="9" y="679"/>
      <point x="83" y="727"/>
      <point x="503" y="727" type="curve" smooth="yes"/>
      <point x="518" y="727"/>
      <point x="534" y="727"/>
      <point x="548" y="726" type="curve"/>
      <point x="612" y="814" type="line"/>
      <point x="862" y="733" type="line"/>
      <point x="802" y="649" type="line"/>
      <point x="863" y="589"/>
      <point x="889" y="490"/>
    </contour>
    <contour>
      <point x="482" y="400" type="curve" smooth="yes"/>
      <point x="482" y="483"/>
      <point x="477" y="500"/>
      <point x="453" y="500" type="curve" smooth="yes"/>
      <point x="425" y="500"/>
      <point x="420" y="482"/>
      <point x="420" y="349" type="curve" smooth="yes"/>
      <point x="420" y="240"/>
      <point x="426" y="211"/>
      <point x="449" y="211" type="curve" smooth="yes"/>
      <point x="472" y="211"/>
      <point x="482" y="225"/>
    </contour>
  </outline>
</glyph>
<glyph name="Thorn" format="1">
  <advance width="868"/>
  <unicode hex="00DE"/>
  <outline>
    <contour>
      <point x="851" y="392" type="curve" smooth="yes"/>
      <point x="851" y="182"/>
      <point x="770" y="117"/>
      <point x="414" y="90" type="curve"/>
      <point x="421" y="9" type="line"/>
      <point x="31" y="-5" type="line"/>
      <point x="16" y="716" type="line"/>
      <point x="396" y="724" type="line"/>
      <point x="400" y="643" type="line"/>
      <point x="578" y="646" type="line" smooth="yes"/>
      <point x="786" y="650"/>
      <point x="851" y="619"/>
    </contour>
    <contour>
      <point x="495" y="389" type="curve" smooth="yes"/>
      <point x="495" y="440"/>
      <point x="469" y="445"/>
      <point x="421" y="434" type="curve"/>
      <point x="428" y="283" type="line"/>
      <point x="476" y="289"/>
      <point x="495" y="313"/>
    </contour>
  </outline>
</glyph>
<glyph name="germandbls" format="1">
  <advance width="994"/>
  <unicode hex="00DF"/>
  <outline>
    <contour>
      <point x="984" y="171" type="curve" smooth="yes"/>
      <point x="984" y="34"/>
      <point x="936" y="-6"/>
      <point x="724" y="-6" type="curve" smooth="yes"/>
      <point x="641" y="-6"/>
      <point x="531" y="7"/>
      <point x="468" y="32" type="curve"/>
      <point x="481" y="206" type="line"/>
      <point x="549" y="180"/>
      <point x="622" y="157"/>
      <point x="692" y="157" type="curve" smooth="yes"/>
      <point x="706" y="157"/>
      <point x="710" y="160"/>
      <point x="710" y="168" type="curve" smooth="yes"/>
      <point x="710" y="180"/>
      <point x="704" y="181"/>
      <point x="670" y="187" type="curve" smooth="yes"/>
      <point x="514" y="213"/>
      <point x="474" y="245"/>
      <point x="474" y="374" type="curve" smooth="yes"/>
      <point x="474" y="431"/>
      <point x="494" y="464"/>
      <point x="534" y="494" type="curve"/>
      <point x="519" y="499"/>
      <point x="507" y="500"/>
      <point x="483" y="500" type="curve" smooth="yes"/>
      <point x="450" y="500"/>
      <point x="432" y="482"/>
      <point x="433" y="445" type="curve" smooth="yes"/>
      <point x="449" y="5" type="line"/>
      <point x="107" y="-13" type="line"/>
      <point x="99" y="187" type="line"/>
      <point x="6" y="193" type="line"/>
      <point x="12" y="389" type="line"/>
      <point x="91" y="390" type="line"/>
      <point x="87" y="468" type="line" smooth="yes"/>
      <point x="77" y="662"/>
      <point x="154" y="729"/>
      <point x="406" y="729" type="curve" smooth="yes"/>
      <point x="561" y="729"/>
      <point x="711" y="700"/>
      <point x="875" y="643" type="curve"/>
      <point x="859" y="393" type="line"/>
      <point x="753" y="388"/>
      <point x="743" y="381"/>
      <point x="743" y="369" type="curve" smooth="yes"/>
      <point x="743" y="358"/>
      <point x="749" y="355"/>
      <point x="811" y="343" type="curve" smooth="yes"/>
      <point x="943" y="318"/>
      <point x="984" y="283"/>
    </contour>
  </outline>
</glyph>
<glyph name="ae" format="1">
  <advance width="1104"/>
  <unicode hex="00E6"/>
  <outline>
    <contour>
      <point x="1097" y="36" type="line"/>
      <point x="980" y="5"/>
      <point x="870" y="-5"/>
      <point x="720" y="-5" type="curve" smooth="yes"/>
      <point x="613" y="-5"/>
      <point x="543" y="16"/>
      <point x="497" y="45" type="curve"/>
      <point x="390" y="3"/>
      <point x="299" y="-13"/>
      <point x="180" y="-13" type="curve" smooth="yes"/>
      <point x="49" y="-13"/>
      <point x="3" y="23"/>
      <point x="3" y="128" type="curve" smooth="yes"/>
      <point x="3" y="266"/>
      <point x="96" y="322"/>
      <point x="399" y="322" type="curve"/>
      <point x="399" y="345"/>
      <point x="387" y="355"/>
      <point x="343" y="355" type="curve" smooth="yes"/>
      <point x="241" y="355"/>
      <point x="180" y="344"/>
      <point x="93" y="324" type="curve"/>
      <point x="53" y="508" type="line"/>
      <point x="146" y="535"/>
      <point x="258" y="551"/>
      <point x="363" y="551" type="curve" smooth="yes"/>
      <point x="451" y="551"/>
      <point x="532" y="535"/>
      <point x="585" y="509" type="curve"/>
      <point x="641" y="533"/>
      <point x="707" y="551"/>
      <point x="792" y="551" type="curve" smooth="yes"/>
      <point x="1011" y="551"/>
      <point x="1082" y="477"/>
      <point x="1090" y="327" type="curve" smooth="yes"/>
      <point x="1095" y="238" type="line"/>
      <point x="734" y="187" type="line"/>
      <point x="747" y="175"/>
      <point x="770" y="167"/>
      <point x="829" y="167" type="curve" smooth="yes"/>
      <point x="896" y="167"/>
      <point x="985" y="176"/>
      <point x="1073" y="195" type="curve"/>
    </contour>
    <contour>
      <point x="788" y="314" type="line"/>
      <point x="783" y="373"/>
      <point x="779" y="388"/>
      <point x="751" y="388" type="curve" smooth="yes"/>
      <point x="722" y="388"/>
      <point x="716" y="373"/>
      <point x="715" y="301" type="curve"/>
    </contour>
    <contour>
      <point x="403" y="171" type="curve"/>
      <point x="398" y="201" type="line"/>
      <point x="305" y="201"/>
      <point x="288" y="188"/>
      <point x="288" y="167" type="curve" smooth="yes"/>
      <point x="288" y="157"/>
      <point x="297" y="151"/>
      <point x="321" y="151" type="curve" smooth="yes"/>
      <point x="344" y="151"/>
      <point x="378" y="157"/>
    </contour>
  </outline>
</glyph>
<glyph name="ccedilla" format="1">
  <advance width="671"/>
  <unicode hex="00E7"/>
  <outline>
    <contour>
      <point x="669" y="521" type="curve"/>
      <point x="635" y="306" type="line"/>
      <point x="563" y="327"/>
      <point x="518" y="332"/>
      <point x="456" y="332" type="curve" smooth="yes"/>
      <point x="393" y="332"/>
      <point x="377" y="312"/>
      <point x="377" y="264" type="curve" smooth="yes"/>
      <point x="377" y="212"/>
      <point x="400" y="192"/>
      <point x="492" y="192" type="curve" smooth="yes"/>
      <point x="547" y="192"/>
      <point x="577" y="195"/>
      <point x="625" y="202" type="curve"/>
      <point x="659" y="18" type="line"/>
      <point x="600" y="7"/>
      <point x="552" y="-1"/>
      <point x="483" y="-4" type="curve"/>
      <point x="523" y="-121" type="line"/>
      <point x="175" y="-167" type="line"/>
      <point x="120" y="-68" type="line"/>
      <point x="280" y="-5" type="line"/>
      <point x="44" y="9"/>
      <point x="7" y="96"/>
      <point x="7" y="282" type="curve" smooth="yes"/>
      <point x="7" y="486"/>
      <point x="62" y="553"/>
      <point x="356" y="553" type="curve" smooth="yes"/>
      <point x="496" y="553"/>
      <point x="574" y="544"/>
    </contour>
  </outline>
</glyph>
<glyph name="eth" format="1">
  <advance width="740"/>
  <unicode hex="00F0"/>
  <outline>
    <contour>
      <point x="732" y="284" type="curve" smooth="yes"/>
      <point x="732" y="19"/>
      <point x="688" y="-13"/>
      <point x="328" y="-13" type="curve" smooth="yes"/>
      <point x="48" y="-13"/>
      <point x="7" y="35"/>
      <point x="7" y="216" type="curve" smooth="yes"/>
      <point x="7" y="422"/>
      <point x="60" y="461"/>
      <point x="355" y="465" type="curve"/>
      <point x="311" y="505"/>
      <point x="228" y="529"/>
      <point x="77" y="545" type="curve"/>
      <point x="110" y="744" type="line"/>
      <point x="259" y="735"/>
      <point x="380" y="714"/>
      <point x="474" y="677" type="curve"/>
      <point x="545" y="760" type="line"/>
      <point x="722" y="668" type="line"/>
      <point x="658" y="545" type="line"/>
      <point x="707" y="479"/>
      <point x="732" y="393"/>
    </contour>
    <contour>
      <point x="396" y="248" type="curve" smooth="yes"/>
      <point x="396" y="292"/>
      <point x="392" y="301"/>
      <point x="372" y="301" type="curve" smooth="yes"/>
      <point x="349" y="301"/>
      <point x="346" y="292"/>
      <point x="346" y="223" type="curve" smooth="yes"/>
      <point x="346" y="166"/>
      <point x="349" y="151"/>
      <point x="369" y="151" type="curve" smooth="yes"/>
      <point x="388" y="151"/>
      <point x="396" y="159"/>
    </contour>
  </outline>
</glyph>
<glyph name="oslash" format="1">
  <advance width="740"/>
  <unicode hex="00F8"/>
  <outline>
    <contour>
      <point x="732" y="252" type="curve" smooth="yes"/>
      <point x="732" y="28"/>
      <point x="663" y="-10"/>
      <point x="328" y="-10" type="curve" smooth="yes"/>
      <point x="314" y="-10"/>
      <point x="301" y="-10"/>
      <point x="289" y="-10" type="curve"/>
      <point x="207" y="-106" type="line"/>
      <point x="18" y="-32" type="line"/>
      <point x="67" y="40" type="line"/>
      <point x="18" y="81"/>
      <point x="7" y="149"/>
      <point x="7" y="259" type="curve" smooth="yes"/>
      <point x="7" y="517"/>
      <point x="67" y="553"/>
      <point x="413" y="553" type="curve" smooth="yes"/>
      <point x="417" y="553"/>
      <point x="421" y="553"/>
      <point x="425" y="553" type="curve"/>
      <point x="499" y="653" type="line"/>
      <point x="700" y="580" type="line"/>
      <point x="659" y="494" type="line"/>
      <point x="710" y="449"/>
      <point x="732" y="373"/>
    </contour>
    <contour>
      <point x="396" y="303" type="curve" smooth="yes"/>
      <point x="396" y="367"/>
      <point x="392" y="381"/>
      <point x="372" y="381" type="curve" smooth="yes"/>
      <point x="349" y="381"/>
      <point x="346" y="366"/>
      <point x="346" y="265" type="curve" smooth="yes"/>
      <point x="346" y="183"/>
      <point x="349" y="160"/>
      <point x="369" y="160" type="curve" smooth="yes"/>
      <point x="388" y="160"/>
      <point x="396" y="171"/>
    </contour>
  </outline>
</glyph>
<glyph name="thorn" format="1">
  <advance width="810"/>
  <unicode hex="00FE"/>
  <outline>
    <contour>
      <point x="800" y="279" type="curve" smooth="yes"/>
      <point x="800" y="49"/>
      <point x="733" y="11"/>
      <point x="561" y="11" type="curve" smooth="yes"/>
      <point x="490" y="11"/>
      <point x="432" y="30"/>
      <point x="391" y="50" type="curve"/>
      <point x="388" y="-130" type="line"/>
      <point x="28" y="-124" type="line"/>
      <point x="10" y="733" type="line"/>
      <point x="388" y="715" type="line"/>
      <point x="372" y="506" type="line"/>
      <point x="445" y="537"/>
      <point x="506" y="551"/>
      <point x="597" y="551" type="curve" smooth="yes"/>
      <point x="726" y="551"/>
      <point x="800" y="503"/>
    </contour>
    <contour>
      <point x="436" y="282" type="curve" smooth="yes"/>
      <point x="436" y="338"/>
      <point x="432" y="346"/>
      <point x="411" y="346" type="curve" smooth="yes"/>
      <point x="394" y="346"/>
      <point x="385" y="334"/>
      <point x="385" y="259" type="curve" smooth="yes"/>
      <point x="385" y="202"/>
      <point x="391" y="190"/>
      <point x="412" y="190" type="curve" smooth="yes"/>
      <point x="430" y="190"/>
      <point x="436" y="204"/>
    </contour>
  </outline>
</glyph>
<glyph name="dotlessi" format="1">
  <advance width="423"/>
  <unicode hex="0131"/>
  <outline>
    <contour>
      <point x="409" y="493" type="line"/>
      <point x="383" y="-6" type="line"/>
      <point x="25" y="7" type="line"/>
      <point x="14" y="518" type="line"/>
    </contour>
  </outline>
</glyph>
<glyph name="Lslash" format="1">
  <advance width="783"/>
  <unicode hex="0141"/>
  <outline>
    <contour>
      <point x="777" y="299" type="line"/>
      <point x="746" y="-8" type="line"/>
      <point x="90" y="5" type="line"/>
      <point x="99" y="252" type="line"/>
      <point x="50" y="238" type="line"/>
      <point x="-5" y="432" type="line"/>
      <point x="99" y="473" type="line"/>
      <point x="94" y="724" type="line"/>
      <point x="502" y="733" type="line"/>
      <point x="495" y="603" type="line"/>
      <point x="623" y="626" type="line"/>
      <point x="655" y="445" type="line"/>
      <point x="495" y="378" type="line"/>
      <point x="509" y="286" type="line"/>
    </contour>
  </outline>
</glyph>
<glyph name="lslash" format="1">
  <advance width="562"/>
  <unicode hex="0142"/>
  <outline>
    <contour>
      <point x="571" y="347" type="line"/>
      <point x="452" y="295" type="line"/>
      <point x="463" y="6" type="line"/>
      <point x="85" y="-4" type="line"/>
      <point x="92" y="203" type="line"/>
      <point x="36" y="189" type="line"/>
      <point x="-11" y="376" type="line"/>
      <point x="94" y="412" type="line"/>
      <point x="74" y="716" type="line"/>
      <point x="452" y="729" type="line"/>
      <point x="446" y="497" type="line"/>
      <point x="513" y="529" type="line"/>
    </contour>
  </outline>
</glyph>
<glyph name="OE" format="1">
  <advance width="1214"/>
  <unicode hex="0152"/>
  <outline>
    <contour>
      <point x="1201" y="506" type="line"/>
      <point x="858" y="498" type="line"/>
      <point x="865" y="445" type="line"/>
      <point x="1136" y="470" type="line"/>
      <point x="1150" y="283" type="line"/>
      <point x="884" y="267" type="line"/>
      <point x="881" y="234" type="line"/>
      <point x="1183" y="225" type="line"/>
      <point x="1182" y="-7" type="line"/>
      <point x="686" y="21" type="line"/>
      <point x="612" y="4"/>
      <point x="493" y="-13"/>
      <point x="380" y="-13" type="curve" smooth="yes"/>
      <point x="62" y="-13"/>
      <point x="9" y="62"/>
      <point x="9" y="341" type="curve" smooth="yes"/>
      <point x="9" y="679"/>
      <point x="94" y="727"/>
      <point x="445" y="727" type="curve" smooth="yes"/>
      <point x="521" y="727"/>
      <point x="614" y="715"/>
      <point x="680" y="697" type="curve"/>
      <point x="1192" y="725" type="line"/>
    </contour>
    <contour>
      <point x="482" y="400" type="curve" smooth="yes"/>
      <point x="482" y="483"/>
      <point x="477" y="500"/>
      <point x="453" y="500" type="curve" smooth="yes"/>
      <point x="425" y="500"/>
      <point x="420" y="482"/>
      <point x="420" y="349" type="curve" smooth="yes"/>
      <point x="420" y="240"/>
      <point x="426" y="211"/>
      <point x="449" y="211" type="curve" smooth="yes"/>
      <point x="472" y="211"/>
      <point x="482" y="225"/>
    </contour>
  </outline>
</glyph>
<glyph name="oe" format="1">
  <advance width="1104"/>
  <unicode hex="0153"/>
  <outline>
    <contour>
      <point x="1097" y="36" type="line"/>
      <point x="980" y="5"/>
      <point x="867" y="-5"/>
      <point x="748" y="-5" type="curve" smooth="yes"/>
      <point x="672" y="-5"/>
      <point x="603" y="14"/>
      <point x="563" y="31" type="curve"/>
      <point x="512" y="9"/>
      <point x="436" y="-10"/>
      <point x="328" y="-10" type="curve" smooth="yes"/>
      <point x="48" y="-10"/>
      <point x="7" y="47"/>
      <point x="7" y="259" type="curve" smooth="yes"/>
      <point x="7" y="487"/>
      <point x="64" y="553"/>
      <point x="368" y="553" type="curve" smooth="yes"/>
      <point x="453" y="553"/>
      <point x="532" y="533"/>
      <point x="579" y="508" type="curve"/>
      <point x="623" y="531"/>
      <point x="688" y="551"/>
      <point x="793" y="551" type="curve" smooth="yes"/>
      <point x="1012" y="551"/>
      <point x="1084" y="477"/>
      <point x="1091" y="327" type="curve" smooth="yes"/>
      <point x="1095" y="238" type="line"/>
      <point x="734" y="187" type="line"/>
      <point x="747" y="174"/>
      <point x="772" y="167"/>
      <point x="834" y="167" type="curve" smooth="yes"/>
      <point x="895" y="167"/>
      <point x="985" y="176"/>
      <point x="1074" y="195" type="curve"/>
    </contour>
    <contour>
      <point x="788" y="314" type="line"/>
      <point x="783" y="373"/>
      <point x="779" y="388"/>
      <point x="751" y="388" type="curve" smooth="yes"/>
      <point x="723" y="388"/>
      <point x="716" y="373"/>
      <point x="715" y="301" type="curve"/>
    </contour>
    <contour>
      <point x="396" y="303" type="curve" smooth="yes"/>
      <point x="396" y="367"/>
      <point x="392" y="381"/>
      <point x="372" y="381" type="curve" smooth="yes"/>
      <point x="349" y="381"/>
      <point x="346" y="366"/>
      <point x="346" y="265" type="curve" smooth="yes"/>
      <point x="346" y="183"/>
      <point x="349" y="160"/>
      <point x="369" y="160" type="curve" smooth="yes"/>
      <point x="388" y="160"/>
      <point x="396" y="171"/>
    </contour>
  </outline>
</glyph>
<glyph name="florin" format="1">
  <advance width="819"/>
  <unicode hex="0192"/>
  <outline>
    <contour>
      <point x="816" y="687" type="curve"/>
      <point x="775" y="404" type="line"/>
      <point x="689" y="432"/>
      <point x="633" y="445"/>
      <point x="543" y="445" type="curve" smooth="yes"/>
      <point x="483" y="445"/>
      <point x="466" y="423"/>
      <point x="467" y="359" type="curve"/>
      <point x="674" y="355" type="line"/>
      <point x="616" y="102" type="line"/>
      <point x="485" y="112" type="line"/>
      <point x="494" y="0" type="line"/>
      <point x="130" y="-15" type="line"/>
      <point x="116" y="143" type="line"/>
      <point x="3" y="152" type="line"/>
      <point x="17" y="369" type="line"/>
      <point x="97" y="367" type="line"/>
      <point x="90" y="459" type="line" smooth="yes"/>
      <point x="74" y="675"/>
      <point x="216" y="724"/>
      <point x="388" y="724" type="curve" smooth="yes"/>
      <point x="559" y="724"/>
      <point x="685" y="712"/>
    </contour>
  </outline>
</glyph>
<glyph name="circumflex" format="1">
  <advance width="540"/>
  <unicode hex="02C6"/>
  <outline>
    <contour>
      <point x="556" y="689" type="line"/>
      <point x="499" y="553" type="line"/>
      <point x="269" y="618" type="line"/>
      <point x="38" y="548" type="line"/>
      <point x="-16" y="681" type="line"/>
      <point x="301" y="816" type="line"/>
    </contour>
  </outline>
</glyph>
<glyph name="caron" format="1">
  <advance width="540"/>
  <unicode hex="02C7"/>
  <outline>
    <contour>
      <point x="556" y="690" type="line"/>
      <point x="238" y="555" type="line"/>
      <point x="-16" y="682" type="line"/>
      <point x="41" y="819" type="line"/>
      <point x="271" y="753" type="line"/>
      <point x="502" y="824" type="line"/>
    </contour>
  </outline>
</glyph>
<glyph name="breve" format="1">
  <advance width="540"/>
  <unicode hex="02D8"/>
  <outline>
    <contour>
      <point x="556" y="652" type="line"/>
      <point x="461" y="586"/>
      <point x="360" y="569"/>
      <point x="258" y="569" type="curve" smooth="yes"/>
      <point x="146" y="569"/>
      <point x="55" y="594"/>
      <point x="-16" y="645" type="curve"/>
      <point x="59" y="804" type="line"/>
      <point x="126" y="764"/>
      <point x="184" y="748"/>
      <point x="271" y="748" type="curve" smooth="yes"/>
      <point x="357" y="748"/>
      <point x="411" y="765"/>
      <point x="484" y="807" type="curve"/>
    </contour>
  </outline>
</glyph>
<glyph name="dotaccent" format="1">
  <advance width="540"/>
  <unicode hex="02D9"/>
  <outline>
    <contour>
      <point x="392" y="779" type="line"/>
      <point x="381" y="566" type="line"/>
      <point x="156" y="575" type="line"/>
      <point x="142" y="785" type="line"/>
    </contour>
  </outline>
</glyph>
<glyph name="ring" format="1">
  <advance width="540"/>
  <unicode hex="02DA"/>
  <outline>
    <contour>
      <point x="480" y="681" type="curve" smooth="yes"/>
      <point x="480" y="583"/>
      <point x="441" y="567"/>
      <point x="245" y="567" type="curve" smooth="yes"/>
      <point x="83" y="567"/>
      <point x="60" y="591"/>
      <point x="60" y="685" type="curve" smooth="yes"/>
      <point x="60" y="797"/>
      <point x="94" y="813"/>
      <point x="295" y="813" type="curve" smooth="yes"/>
      <point x="430" y="813"/>
      <point x="480" y="787"/>
    </contour>
    <contour>
      <point x="292" y="701" type="curve" smooth="yes"/>
      <point x="292" y="720"/>
      <point x="288" y="725"/>
      <point x="272" y="725" type="curve" smooth="yes"/>
      <point x="253" y="725"/>
      <point x="248" y="720"/>
      <point x="248" y="688" type="curve" smooth="yes"/>
      <point x="248" y="663"/>
      <point x="253" y="655"/>
      <point x="269" y="655" type="curve" smooth="yes"/>
      <point x="285" y="655"/>
      <point x="292" y="659"/>
    </contour>
  </outline>
</glyph>
<glyph name="ogonek" format="1">
  <advance width="540"/>
  <unicode hex="02DB"/>
  <outline>
    <contour>
      <point x="488" y="-68" type="line"/>
      <point x="432" y="-167" type="line"/>
      <point x="85" y="-121" type="line"/>
      <point x="148" y="65" type="line"/>
    </contour>
  </outline>
</glyph>
<glyph name="tilde" format="1">
  <advance width="540"/>
  <unicode hex="02DC"/>
  <outline>
    <contour>
      <point x="556" y="758" type="line"/>
      <point x="533" y="589"/>
      <point x="504" y="565"/>
      <point x="426" y="565" type="curve" smooth="yes"/>
      <point x="384" y="565"/>
      <point x="331" y="578"/>
      <point x="276" y="594" type="curve" smooth="yes"/>
      <point x="234" y="606"/>
      <point x="195" y="615"/>
      <point x="177" y="615" type="curve" smooth="yes"/>
      <point x="141" y="615"/>
      <point x="131" y="596"/>
      <point x="123" y="560" type="curve"/>
      <point x="-13" y="589" type="line"/>
      <point x="6" y="769"/>
      <point x="36" y="807"/>
      <point x="116" y="807" type="curve" smooth="yes"/>
      <point x="146" y="807"/>
      <point x="185" y="799"/>
      <point x="249" y="775" type="curve" smooth="yes"/>
      <point x="303" y="755"/>
      <point x="337" y="744"/>
      <point x="362" y="744" type="curve" smooth="yes"/>
      <point x="390" y="744"/>
      <point x="396" y="757"/>
      <point x="405" y="781" type="curve"/>
    </contour>
  </outline>
</glyph>
<glyph name="hungarumlaut" format="1">
  <advance width="540"/>
  <unicode hex="02DD"/>
  <outline>
    <contour>
      <point x="310" y="756" type="line"/>
      <point x="128" y="571" type="line"/>
      <point x="1" y="655" type="line"/>
      <point x="138" y="878" type="line"/>
    </contour>
    <contour>
      <point x="540" y="741" type="line"/>
      <point x="356" y="560" type="line"/>
      <point x="221" y="625" type="line"/>
      <point x="373" y="814" type="line"/>
    </contour>
  </outline>
</glyph>
<glyph name="endash" format="1">
  <advance width="517"/>
  <unicode hex="2013"/>
  <outline>
    <contour>
      <point x="506" y="201" type="line"/>
      <point x="20" y="184" type="line"/>
      <point x="12" y="457" type="line"/>
      <point x="499" y="460" type="line"/>
    </contour>
  </outline>
</glyph>
<glyph name="emdash" format="1">
  <advance width="648"/>
  <unicode hex="2014"/>
  <outline>
    <contour>
      <point x="635" y="443" type="line"/>
      <point x="625" y="184" type="line"/>
      <point x="8" y="202" type="line"/>
      <point x="19" y="473" type="line"/>
    </contour>
  </outline>
</glyph>
<glyph name="quoteleft" format="1">
  <advance width="450"/>
  <unicode hex="2018"/>
  <unicode hex="02BB"/>
  <outline>
    <contour>
      <point x="436" y="409" type="line"/>
      <point x="210" y="272" type="line"/>
      <point x="7" y="610" type="line"/>
      <point x="349" y="760" type="line"/>
    </contour>
  </outline>
</glyph>
<glyph name="quoteright" format="1">
  <advance width="450"/>
  <unicode hex="2019"/>
  <unicode hex="02BC"/>
  <outline>
    <contour>
      <point x="442" y="709" type="line"/>
      <point x="296" y="306" type="line"/>
      <point x="8" y="387" type="line"/>
      <point x="84" y="741" type="line"/>
    </contour>
  </outline>
</glyph>
<glyph name="quotesinglbase" format="1">
  <advance width="450"/>
  <unicode hex="201A"/>
  <outline>
    <contour>
      <point x="437" y="263" type="line"/>
      <point x="274" y="-140" type="line"/>
      <point x="-14" y="-59" type="line"/>
      <point x="79" y="294" type="line"/>
    </contour>
  </outline>
</glyph>
<glyph name="quotedblleft" format="1">
  <advance width="765"/>
  <unicode hex="201C"/>
  <outline>
    <contour>
      <point x="753" y="751" type="line"/>
      <point x="717" y="351" type="line"/>
      <point x="467" y="324" type="line"/>
      <point x="376" y="704" type="line"/>
    </contour>
    <contour>
      <point x="409" y="266" type="line"/>
      <point x="136" y="299" type="line"/>
      <point x="7" y="664" type="line"/>
      <point x="344" y="752" type="line"/>
    </contour>
  </outline>
</glyph>
<glyph name="quotedblright" format="1">
  <advance width="765"/>
  <unicode hex="201D"/>
  <outline>
    <contour>
      <point x="758" y="700" type="line"/>
      <point x="648" y="335" type="line"/>
      <point x="393" y="369" type="line"/>
      <point x="390" y="723" type="line"/>
    </contour>
    <contour>
      <point x="368" y="689" type="line"/>
      <point x="249" y="302" type="line"/>
      <point x="9" y="389" type="line"/>
      <point x="55" y="743" type="line"/>
    </contour>
  </outline>
</glyph>
<glyph name="quotedblbase" format="1">
  <advance width="765"/>
  <unicode hex="201E"/>
  <outline>
    <contour>
      <point x="751" y="254" type="line"/>
      <point x="641" y="-111" type="line"/>
      <point x="386" y="-77" type="line"/>
      <point x="383" y="277" type="line"/>
    </contour>
    <contour>
      <point x="361" y="243" type="line"/>
      <point x="242" y="-144" type="line"/>
      <point x="2" y="-57" type="line"/>
      <point x="48" y="297" type="line"/>
    </contour>
  </outline>
</glyph>
<glyph name="dagger" format="1">
  <advance width="702"/>
  <unicode hex="2020"/>
  <outline>
    <contour>
      <point x="695" y="377" type="line"/>
      <point x="493" y="354" type="line"/>
      <point x="504" y="-9" type="line"/>
      <point x="176" y="9" type="line"/>
      <point x="182" y="342" type="line"/>
      <point x="9" y="352" type="line"/>
      <point x="13" y="607" type="line"/>
      <point x="182" y="594" type="line"/>
      <point x="191" y="721" type="line"/>
      <point x="511" y="731" type="line"/>
      <point x="517" y="595" type="line"/>
      <point x="679" y="592" type="line"/>
    </contour>
  </outline>
</glyph>
<glyph name="daggerdbl" format="1">
  <advance width="702"/>
  <unicode hex="2021"/>
  <outline>
    <contour>
      <point x="691" y="121" type="line"/>
      <point x="506" y="122" type="line"/>
      <point x="504" y="9" type="line"/>
      <point x="191" y="-7" type="line"/>
      <point x="185" y="103" type="line"/>
      <point x="10" y="81" type="line"/>
      <point x="17" y="328" type="line"/>
      <point x="194" y="337" type="line"/>
      <point x="193" y="393" type="line"/>
      <point x="13" y="395" type="line"/>
      <point x="10" y="607" type="line"/>
      <point x="209" y="625" type="line"/>
      <point x="216" y="724" type="line"/>
      <point x="511" y="731" type="line"/>
      <point x="524" y="616" type="line"/>
      <point x="691" y="610" type="line"/>
      <point x="686" y="411" type="line"/>
      <point x="493" y="422" type="line"/>
      <point x="486" y="354" type="line"/>
      <point x="684" y="357" type="line"/>
    </contour>
  </outline>
</glyph>
<glyph name="bullet" format="1">
  <advance width="616"/>
  <unicode hex="2022"/>
  <outline>
    <contour>
      <point x="607" y="336" type="curve" smooth="yes"/>
      <point x="607" y="126"/>
      <point x="551" y="91"/>
      <point x="273" y="91" type="curve" smooth="yes"/>
      <point x="43" y="91"/>
      <point x="9" y="144"/>
      <point x="9" y="342" type="curve" smooth="yes"/>
      <point x="9" y="583"/>
      <point x="60" y="617"/>
      <point x="345" y="617" type="curve" smooth="yes"/>
      <point x="536" y="617"/>
      <point x="607" y="563"/>
    </contour>
  </outline>
</glyph>
<glyph name="ellipsis" format="1">
  <advance width="1228"/>
  <unicode hex="2026"/>
  <outline>
    <contour>
      <point x="396" y="7" type="line"/>
      <point x="18" y="-7" type="line"/>
      <point x="13" y="265" type="line"/>
      <point x="383" y="281" type="line"/>
    </contour>
    <contour>
      <point x="1215" y="263" type="line"/>
      <point x="1210" y="-9" type="line"/>
      <point x="841" y="-13" type="line"/>
      <point x="826" y="279" type="line"/>
    </contour>
    <contour>
      <point x="804" y="256" type="line"/>
      <point x="800" y="-18" type="line"/>
      <point x="420" y="-20" type="line"/>
      <point x="426" y="270" type="line"/>
    </contour>
  </outline>
</glyph>
<glyph name="perthousand" format="1">
  <advance width="1251"/>
  <unicode hex="2030"/>
  <outline>
    <contour>
      <point x="1244" y="238" type="curve" smooth="yes"/>
      <point x="1244" y="18"/>
      <point x="1187" y="-13"/>
      <point x="950" y="-13" type="curve" smooth="yes"/>
      <point x="875" y="-13"/>
      <point x="823" y="4"/>
      <point x="788" y="22" type="curve"/>
      <point x="748" y="2"/>
      <point x="678" y="-11"/>
      <point x="591" y="-11" type="curve" smooth="yes"/>
      <point x="416" y="-11"/>
      <point x="360" y="20"/>
      <point x="345" y="124" type="curve"/>
      <point x="140" y="-12" type="line"/>
      <point x="14" y="100" type="line"/>
      <point x="198" y="247" type="line"/>
      <point x="32" y="256"/>
      <point x="7" y="311"/>
      <point x="7" y="475" type="curve" smooth="yes"/>
      <point x="7" y="695"/>
      <point x="55" y="725"/>
      <point x="328" y="725" type="curve" smooth="yes"/>
      <point x="486" y="725"/>
      <point x="557" y="689"/>
      <point x="574" y="548" type="curve"/>
      <point x="738" y="719" type="line"/>
      <point x="905" y="611" type="line"/>
      <point x="743" y="456" type="line"/>
      <point x="764" y="451"/>
      <point x="782" y="444"/>
      <point x="795" y="436" type="curve"/>
      <point x="831" y="454"/>
      <point x="898" y="468"/>
      <point x="992" y="468" type="curve" smooth="yes"/>
      <point x="1212" y="468"/>
      <point x="1244" y="419"/>
    </contour>
    <contour>
      <point x="314" y="513" type="curve" smooth="yes"/>
      <point x="314" y="567"/>
      <point x="310" y="579"/>
      <point x="295" y="579" type="curve" smooth="yes"/>
      <point x="277" y="579"/>
      <point x="274" y="567"/>
      <point x="274" y="480" type="curve" smooth="yes"/>
      <point x="274" y="409"/>
      <point x="277" y="390"/>
      <point x="292" y="390" type="curve" smooth="yes"/>
      <point x="308" y="390"/>
      <point x="314" y="400"/>
    </contour>
    <contour>
      <point x="976" y="233" type="curve" smooth="yes"/>
      <point x="976" y="303"/>
      <point x="974" y="323"/>
      <point x="958" y="323" type="curve" smooth="yes"/>
      <point x="943" y="323"/>
      <point x="937" y="313"/>
      <point x="937" y="200" type="curve" smooth="yes"/>
      <point x="937" y="146"/>
      <point x="940" y="134"/>
      <point x="956" y="134" type="curve" smooth="yes"/>
      <point x="974" y="134"/>
      <point x="976" y="146"/>
    </contour>
    <contour>
      <point x="646" y="257" type="curve" smooth="yes"/>
      <point x="646" y="311"/>
      <point x="643" y="323"/>
      <point x="627" y="323" type="curve" smooth="yes"/>
      <point x="609" y="323"/>
      <point x="607" y="311"/>
      <point x="607" y="224" type="curve" smooth="yes"/>
      <point x="607" y="154"/>
      <point x="609" y="134"/>
      <point x="625" y="134" type="curve" smooth="yes"/>
      <point x="640" y="134"/>
      <point x="646" y="144"/>
    </contour>
  </outline>
</glyph>
<glyph name="guilsinglleft" format="1">
  <advance width="517"/>
  <unicode hex="2039"/>
  <outline>
    <contour>
      <point x="509" y="-22" type="line"/>
      <point x="136" y="0" type="line"/>
      <point x="4" y="288" type="line"/>
      <point x="148" y="553" type="line"/>
      <point x="484" y="574" type="line"/>
      <point x="380" y="256" type="line"/>
    </contour>
  </outline>
</glyph>
<glyph name="guilsinglright" format="1">
  <advance width="517"/>
  <unicode hex="203A"/>
  <outline>
    <contour>
      <point x="513" y="315" type="line"/>
      <point x="365" y="14" type="line"/>
      <point x="9" y="-12" type="line"/>
      <point x="141" y="227" type="line"/>
      <point x="8" y="512" type="line"/>
      <point x="364" y="585" type="line"/>
    </contour>
  </outline>
</glyph>
<glyph name="fraction" format="1">
  <advance width="571"/>
  <unicode hex="2044"/>
  <unicode hex="2215"/>
  <outline>
    <contour>
      <point x="634" y="707" type="line"/>
      <point x="264" y="-13" type="line"/>
      <point x="-58" y="4" type="line"/>
      <point x="260" y="725" type="line"/>
    </contour>
  </outline>
</glyph>
<glyph name="Euro" format="1">
  <advance width="868"/>
  <unicode hex="20AC"/>
  <outline>
    <contour>
      <point x="171" y="613" type="line"/>
      <point x="218" y="696"/>
      <point x="318" y="727"/>
      <point x="521" y="727" type="curve" smooth="yes"/>
      <point x="682" y="727"/>
      <point x="770" y="717"/>
      <point x="863" y="689" type="curve"/>
      <point x="826" y="406" type="line"/>
      <point x="758" y="431"/>
      <point x="708" y="437"/>
      <point x="636" y="437" type="curve" smooth="yes"/>
      <point x="564" y="437"/>
      <point x="545" y="411"/>
      <point x="545" y="347" type="curve" smooth="yes"/>
      <point x="545" y="280"/>
      <point x="571" y="252"/>
      <point x="677" y="252" type="curve" smooth="yes"/>
      <point x="741" y="252"/>
      <point x="775" y="258"/>
      <point x="814" y="263" type="curve"/>
      <point x="852" y="20" type="line"/>
      <point x="770" y="4"/>
      <point x="691" y="-11"/>
      <point x="528" y="-11" type="curve" smooth="yes"/>
      <point x="327" y="-11"/>
      <point x="226" y="25"/>
      <point x="177" y="104" type="curve"/>
      <point x="33" y="111" type="line"/>
      <point x="25" y="322" type="line"/>
      <point x="132" y="325" type="line"/>
      <point x="132" y="325"/>
      <point x="131" y="343"/>
      <point x="131" y="371" type="curve" smooth="yes"/>
      <point x="131" y="375"/>
      <point x="131" y="379"/>
      <point x="131" y="383" type="curve"/>
      <point x="10" y="389" type="line"/>
      <point x="32" y="614" type="line"/>
    </contour>
  </outline>
</glyph>
<glyph name="uni2117" format="1">
  <advance width="900"/>
  <unicode hex="2117"/>
  <outline>
    <contour>
      <point x="889" y="331" type="curve" smooth="yes"/>
      <point x="889" y="80"/>
      <point x="768" y="-13"/>
      <point x="398" y="-13" type="curve" smooth="yes"/>
      <point x="106" y="-13"/>
      <point x="9" y="84"/>
      <point x="9" y="341" type="curve" smooth="yes"/>
      <point x="9" y="660"/>
      <point x="108" y="727"/>
      <point x="503" y="727" type="curve" smooth="yes"/>
      <point x="760" y="727"/>
      <point x="889" y="628"/>
    </contour>
    <contour>
      <point x="748" y="331" type="curve" smooth="yes"/>
      <point x="748" y="544"/>
      <point x="670" y="610"/>
      <point x="501" y="610" type="curve" smooth="yes"/>
      <point x="189" y="610"/>
      <point x="156" y="571"/>
      <point x="156" y="341" type="curve" smooth="yes"/>
      <point x="156" y="153"/>
      <point x="183" y="104"/>
      <point x="405" y="104" type="curve" smooth="yes"/>
      <point x="670" y="104"/>
      <point x="748" y="141"/>
    </contour>
    <contour>
      <point x="702" y="411" type="curve" smooth="yes"/>
      <point x="702" y="294"/>
      <point x="650" y="247"/>
      <point x="448" y="233" type="curve"/>
      <point x="453" y="139" type="line"/>
      <point x="226" y="150" type="line"/>
      <point x="218" y="547" type="line"/>
      <point x="517" y="560" type="line" smooth="yes"/>
      <point x="643" y="565"/>
      <point x="702" y="538"/>
    </contour>
    <contour>
      <point x="496" y="409" type="curve" smooth="yes"/>
      <point x="496" y="437"/>
      <point x="480" y="441"/>
      <point x="453" y="434" type="curve"/>
      <point x="455" y="350" type="line"/>
      <point x="485" y="353"/>
      <point x="496" y="367"/>
    </contour>
  </outline>
</glyph>
<glyph name="trademark" format="1">
  <advance width="1251"/>
  <unicode hex="2122"/>
  <outline>
    <contour>
      <point x="1236" y="695" type="line"/>
      <point x="1226" y="248" type="line"/>
      <point x="1011" y="256" type="line"/>
      <point x="993" y="444" type="line"/>
      <point x="955" y="262" type="line"/>
      <point x="820" y="246" type="line"/>
      <point x="753" y="493" type="line"/>
      <point x="771" y="259" type="line"/>
      <point x="531" y="257" type="line"/>
      <point x="528" y="714" type="line"/>
      <point x="836" y="722" type="line"/>
      <point x="900" y="546" type="line"/>
      <point x="939" y="728" type="line"/>
    </contour>
    <contour>
      <point x="509" y="714" type="line"/>
      <point x="506" y="537" type="line"/>
      <point x="391" y="543" type="line"/>
      <point x="393" y="247" type="line"/>
      <point x="117" y="261" type="line"/>
      <point x="135" y="540" type="line"/>
      <point x="12" y="552" type="line"/>
      <point x="18" y="723" type="line"/>
    </contour>
  </outline>
</glyph>
<glyph name="radical" format="1">
  <advance width="801"/>
  <unicode hex="221A"/>
  <outline>
    <contour>
      <point x="798" y="688" type="line"/>
      <point x="581" y="16" type="line"/>
      <point x="236" y="-19" type="line"/>
      <point x="2" y="277" type="line"/>
      <point x="212" y="464" type="line"/>
      <point x="360" y="306" type="line"/>
      <point x="448" y="733" type="line"/>
    </contour>
  </outline>
</glyph>
<glyph name="apple" format="1">
  <advance width="900"/>
  <unicode hex="F8FF"/>
  <outline>
    <contour>
      <point x="432" y="374" type="line"/>
      <point x="27" y="382" type="line"/>
      <point x="41" y="713" type="line"/>
      <point x="418" y="727" type="line"/>
    </contour>
    <contour>
      <point x="886" y="400" type="line"/>
      <point x="479" y="360" type="line"/>
      <point x="464" y="693" type="line"/>
      <point x="877" y="724" type="line"/>
    </contour>
    <contour>
      <point x="430" y="-5" type="line"/>
      <point x="36" y="3" type="line"/>
      <point x="14" y="331" type="line"/>
      <point x="400" y="347" type="line"/>
    </contour>
    <contour>
      <point x="873" y="335" type="line"/>
      <point x="866" y="0" type="line"/>
      <point x="454" y="23" type="line"/>
      <point x="454" y="338" type="line"/>
    </contour>
  </outline>
</glyph>
<glyph name="f_f" format="1">
  <advance width="1098"/>
  <unicode hex="FB00"/>
  <outline>
    <contour>
      <point x="1110" y="698" type="curve"/>
      <point x="1099" y="459" type="line"/>
      <point x="1043" y="473"/>
      <point x="1001" y="479"/>
      <point x="939" y="479" type="curve" smooth="yes"/>
      <point x="890" y="479"/>
      <point x="872" y="460"/>
      <point x="874" y="414" type="curve" smooth="yes"/>
      <point x="876" y="374" type="line"/>
      <point x="1075" y="371" type="line"/>
      <point x="1079" y="130" type="line"/>
      <point x="885" y="141" type="line"/>
      <point x="890" y="-4" type="line"/>
      <point x="548" y="-22" type="line"/>
      <point x="541" y="161" type="line"/>
      <point x="443" y="166" type="line"/>
      <point x="449" y="14" type="line"/>
      <point x="107" y="-4" type="line"/>
      <point x="99" y="187" type="line"/>
      <point x="6" y="193" type="line"/>
      <point x="12" y="389" type="line"/>
      <point x="91" y="387" type="line"/>
      <point x="87" y="468" type="line" smooth="yes"/>
      <point x="77" y="662"/>
      <point x="154" y="729"/>
      <point x="406" y="729" type="curve" smooth="yes"/>
      <point x="511" y="729"/>
      <point x="578" y="722"/>
      <point x="648" y="704" type="curve"/>
      <point x="697" y="722"/>
      <point x="761" y="729"/>
      <point x="847" y="729" type="curve" smooth="yes"/>
      <point x="962" y="729"/>
      <point x="1031" y="720"/>
    </contour>
    <contour>
      <point x="532" y="380" type="line"/>
      <point x="528" y="481" type="line" smooth="yes"/>
      <point x="528" y="485"/>
      <point x="528" y="490"/>
      <point x="528" y="492" type="curve"/>
      <point x="518" y="494"/>
      <point x="508" y="494"/>
      <point x="498" y="494" type="curve" smooth="yes"/>
      <point x="449" y="494"/>
      <point x="432" y="472"/>
      <point x="433" y="419" type="curve" smooth="yes"/>
      <point x="434" y="382" type="line"/>
    </contour>
  </outline>
</glyph>
<glyph name="fi" format="1">
  <advance width="886"/>
  <unicode hex="FB01"/>
  <outline>
    <contour>
      <point x="877" y="415" type="line"/>
      <point x="860" y="-6" type="line"/>
      <point x="529" y="-2" type="line"/>
      <point x="525" y="182" type="line"/>
      <point x="443" y="179" type="line"/>
      <point x="449" y="20" type="line"/>
      <point x="107" y="-13" type="line"/>
      <point x="100" y="168" type="line"/>
      <point x="6" y="166" type="line"/>
      <point x="12" y="362" type="line"/>
      <point x="91" y="366" type="line"/>
      <point x="87" y="468" type="line" smooth="yes"/>
      <point x="79" y="662"/>
      <point x="148" y="729"/>
      <point x="462" y="729" type="curve" smooth="yes"/>
      <point x="612" y="729"/>
      <point x="719" y="719"/>
      <point x="840" y="689" type="curve"/>
      <point x="829" y="450" type="line"/>
      <point x="745" y="467"/>
      <point x="652" y="479"/>
      <point x="553" y="479" type="curve" smooth="yes"/>
      <point x="444" y="479"/>
      <point x="431" y="460"/>
      <point x="433" y="414" type="curve" smooth="yes"/>
      <point x="434" y="388" type="line"/>
    </contour>
  </outline>
</glyph>
<glyph name="fl" format="1">
  <advance width="913"/>
  <unicode hex="FB02"/>
  <outline>
    <contour>
      <point x="894" y="-3" type="line"/>
      <point x="543" y="27" type="line"/>
      <point x="541" y="162" type="line"/>
      <point x="443" y="167" type="line"/>
      <point x="449" y="-4" type="line"/>
      <point x="107" y="-22" type="line"/>
      <point x="99" y="187" type="line"/>
      <point x="6" y="193" type="line"/>
      <point x="12" y="389" type="line"/>
      <point x="90" y="390" type="line"/>
      <point x="87" y="468" type="line" smooth="yes"/>
      <point x="80" y="662"/>
      <point x="154" y="729"/>
      <point x="406" y="729" type="curve" smooth="yes"/>
      <point x="476" y="729"/>
      <point x="530" y="725"/>
      <point x="579" y="718" type="curve"/>
      <point x="883" y="729" type="line"/>
    </contour>
    <contour>
      <point x="537" y="395" type="line"/>
      <point x="535" y="490" type="line"/>
      <point x="524" y="490"/>
      <point x="511" y="490"/>
      <point x="498" y="490" type="curve" smooth="yes"/>
      <point x="449" y="490"/>
      <point x="431" y="469"/>
      <point x="433" y="416" type="curve" smooth="yes"/>
      <point x="434" y="393" type="line"/>
    </contour>
  </outline>
</glyph>
<glyph name="f_f_i" format="1">
  <advance width="1327"/>
  <unicode hex="FB03"/>
  <outline>
    <contour>
      <point x="1318" y="401" type="line"/>
      <point x="1301" y="-15" type="line"/>
      <point x="970" y="-2" type="line"/>
      <point x="966" y="172" type="line"/>
      <point x="884" y="170" type="line"/>
      <point x="890" y="23" type="line"/>
      <point x="548" y="5" type="line"/>
      <point x="541" y="161" type="line"/>
      <point x="442" y="158" type="line"/>
      <point x="449" y="-22" type="line"/>
      <point x="107" y="13" type="line"/>
      <point x="101" y="150" type="line"/>
      <point x="6" y="148" type="line"/>
      <point x="12" y="344" type="line"/>
      <point x="93" y="347" type="line"/>
      <point x="87" y="468" type="line" smooth="yes"/>
      <point x="77" y="662"/>
      <point x="154" y="729"/>
      <point x="406" y="729" type="curve" smooth="yes"/>
      <point x="515" y="729"/>
      <point x="582" y="721"/>
      <point x="656" y="702" type="curve"/>
      <point x="713" y="721"/>
      <point x="793" y="729"/>
      <point x="903" y="729" type="curve" smooth="yes"/>
      <point x="1053" y="729"/>
      <point x="1160" y="719"/>
      <point x="1281" y="689" type="curve"/>
      <point x="1270" y="450" type="line"/>
      <point x="1186" y="467"/>
      <point x="1093" y="479"/>
      <point x="994" y="479" type="curve" smooth="yes"/>
      <point x="885" y="479"/>
      <point x="873" y="460"/>
      <point x="874" y="414" type="curve" smooth="yes"/>
      <point x="875" y="382" type="line"/>
    </contour>
    <contour>
      <point x="532" y="366" type="line"/>
      <point x="528" y="483" type="line" smooth="yes"/>
      <point x="528" y="487"/>
      <point x="528" y="491"/>
      <point x="528" y="494" type="curve"/>
      <point x="518" y="496"/>
      <point x="508" y="496"/>
      <point x="498" y="496" type="curve" smooth="yes"/>
      <point x="449" y="496"/>
      <point x="431" y="473"/>
      <point x="433" y="421" type="curve" smooth="yes"/>
      <point x="435" y="362" type="line"/>
    </contour>
  </outline>
</glyph>
<glyph name="f_f_l" format="1">
  <advance width="1354"/>
  <unicode hex="FB04"/>
  <outline>
    <contour>
      <point x="1335" y="-12" type="line"/>
      <point x="984" y="-22" type="line"/>
      <point x="981" y="160" type="line"/>
      <point x="885" y="164" type="line"/>
      <point x="890" y="23" type="line"/>
      <point x="548" y="-4" type="line"/>
      <point x="541" y="175" type="line"/>
      <point x="442" y="178" type="line"/>
      <point x="449" y="-30" type="line"/>
      <point x="107" y="-13" type="line"/>
      <point x="99" y="190" type="line"/>
      <point x="6" y="193" type="line"/>
      <point x="12" y="389" type="line"/>
      <point x="91" y="390" type="line"/>
      <point x="87" y="468" type="line" smooth="yes"/>
      <point x="77" y="662"/>
      <point x="154" y="729"/>
      <point x="406" y="729" type="curve" smooth="yes"/>
      <point x="511" y="729"/>
      <point x="578" y="722"/>
      <point x="648" y="704" type="curve"/>
      <point x="697" y="722"/>
      <point x="761" y="729"/>
      <point x="847" y="729" type="curve" smooth="yes"/>
      <point x="917" y="729"/>
      <point x="971" y="725"/>
      <point x="1020" y="718" type="curve"/>
      <point x="1324" y="729" type="line"/>
    </contour>
    <contour>
      <point x="977" y="397" type="line"/>
      <point x="976" y="490" type="line"/>
      <point x="965" y="490"/>
      <point x="952" y="490"/>
      <point x="939" y="490" type="curve" smooth="yes"/>
      <point x="890" y="490"/>
      <point x="872" y="469"/>
      <point x="874" y="417" type="curve" smooth="yes"/>
      <point x="875" y="396" type="line"/>
    </contour>
    <contour>
      <point x="531" y="392" type="line"/>
      <point x="528" y="479" type="line" smooth="yes"/>
      <point x="528" y="482"/>
      <point x="528" y="487"/>
      <point x="528" y="490" type="curve"/>
      <point x="518" y="490"/>
      <point x="508" y="490"/>
      <point x="498" y="490" type="curve" smooth="yes"/>
      <point x="449" y="490"/>
      <point x="431" y="469"/>
      <point x="433" y="417" type="curve" smooth="yes"/>
      <point x="434" y="391" type="line"/>
    </contour>
  </outline>
</glyph>
<glyph name="registered" format="1">
  <advance width="900"/>
  <outline>
    <contour>
      <point x="889" y="331" type="curve" smooth="yes"/>
      <point x="889" y="80"/>
      <point x="768" y="-13"/>
      <point x="398" y="-13" type="curve" smooth="yes"/>
      <point x="106" y="-13"/>
      <point x="9" y="84"/>
      <point x="9" y="341" type="curve" smooth="yes"/>
      <point x="9" y="660"/>
      <point x="108" y="727"/>
      <point x="503" y="727" type="curve" smooth="yes"/>
      <point x="760" y="727"/>
      <point x="889" y="628"/>
    </contour>
    <contour>
      <point x="760" y="331" type="curve" smooth="yes"/>
      <point x="760" y="555"/>
      <point x="715" y="606"/>
      <point x="502" y="606" type="curve" smooth="yes"/>
      <point x="175" y="606"/>
      <point x="148" y="571"/>
      <point x="148" y="341" type="curve" smooth="yes"/>
      <point x="148" y="151"/>
      <point x="184" y="109"/>
      <point x="399" y="109" type="curve" smooth="yes"/>
      <point x="705" y="109"/>
      <point x="760" y="139"/>
    </contour>
    <contour>
      <point x="712" y="184" type="line"/>
      <point x="479" y="159" type="line"/>
      <point x="442" y="273" type="line"/>
      <point x="437" y="150" type="line"/>
      <point x="218" y="161" type="line"/>
      <point x="219" y="551" type="line"/>
      <point x="529" y="561" type="line" smooth="yes"/>
      <point x="656" y="565"/>
      <point x="690" y="523"/>
      <point x="690" y="437" type="curve" smooth="yes"/>
      <point x="690" y="394"/>
      <point x="675" y="364"/>
      <point x="639" y="329" type="curve"/>
    </contour>
    <contour>
      <point x="474" y="422" type="curve" smooth="yes"/>
      <point x="474" y="445"/>
      <point x="460" y="452"/>
      <point x="441" y="454" type="curve"/>
      <point x="442" y="377" type="line"/>
      <point x="460" y="382"/>
      <point x="474" y="389"/>
    </contour>
  </outline>
</glyph>
